<svg width="743" height="654" viewBox="0 0 743 654" fill="none" xmlns="http://www.w3.org/2000/svg">
<path d="M738.758 0C739.697 0.48053 740.637 0.96106 741.605 1.45615C741.605 160.512 741.605 319.567 741.605 483.442C738.317 484.403 735.029 485.364 731.641 486.355C731.641 487.316 731.641 488.277 731.641 489.267C727.44 492.456 723.242 494.107 718.296 495.638C712.67 497.435 708.862 499.958 704.262 503.641C701.391 505.519 698.932 506.195 695.61 506.923C690.028 507.634 690.028 507.634 687.515 512.565C684.012 514.112 684.012 514.112 679.864 515.478C674.466 517.263 670.576 519.12 666.163 522.758C658.772 526.941 658.772 526.941 654.242 527.673C650.379 528.614 648.419 529.878 645.168 532.132C639.987 535.639 635.529 536.99 629.404 537.826C626.04 538.638 626.04 538.638 622.977 541.546C618.596 545.08 614.697 546.488 609.404 548.241C601.415 550.969 601.415 550.969 594.013 554.976C588.475 558.183 583.158 559.56 576.993 561.039C573.411 561.851 573.411 561.851 570.794 564.987C568.518 565.68 566.238 566.363 563.943 566.989C555.371 569.495 546.991 572.611 539.122 576.909C535.367 578.931 533.34 579.607 528.981 580.185C524.042 580.969 521.537 582.072 517.237 584.463C510.136 588.328 503.217 589.915 495.38 591.567C491.587 592.526 488.841 593.613 485.477 595.566C478.918 599.327 471.833 600.245 464.52 601.698C459.383 602.939 455.403 604.816 450.842 607.443C446.883 609.417 442.753 609.634 438.415 610.127C435.562 611.08 432.715 612.05 429.875 613.04C428.319 613.28 426.763 613.52 425.159 613.768C423.897 614.008 422.635 614.248 421.334 614.496C420.864 615.457 420.395 616.418 419.911 617.408C416.758 618.278 416.758 618.278 412.882 618.955C407.687 619.837 407.687 619.837 402.829 621.777C400.585 622.305 398.329 622.784 396.068 623.233C394.8 623.488 393.532 623.743 392.226 624.006C389.338 624.549 386.433 624.999 383.524 625.417C382.379 625.657 381.234 625.898 380.055 626.145C379.585 627.106 379.115 628.067 378.631 629.057C375.729 629.928 375.729 629.928 372.048 630.605C370.855 630.832 369.663 631.059 368.434 631.293C365.497 631.785 362.547 632.195 359.593 632.556C354.061 633.489 349.206 635.122 343.935 637.066C335.976 639.92 328.688 641.589 320.271 642.163C318.862 642.643 317.452 643.124 316 643.619C314.047 643.836 312.089 644.014 310.129 644.165C305.378 644.643 301.414 645.605 296.962 647.35C289.582 650.103 282.484 649.844 274.721 649.443C274.721 650.405 274.721 651.366 274.721 652.356C256.364 654.456 237.915 653.973 219.474 653.903C216.13 653.896 212.785 653.889 209.441 653.883C201.309 653.867 193.177 653.843 185.045 653.812C185.045 652.851 185.045 651.89 185.045 650.9C192.285 647.911 198.592 645.996 206.397 645.075C207.204 644.855 208.011 644.636 208.843 644.41C213.551 643.263 218.327 642.698 223.122 642.072C224.611 641.873 224.611 641.873 226.13 641.671C228.567 641.346 231.004 641.026 233.442 640.707C233.442 639.746 233.442 638.784 233.442 637.794C235.992 637.306 238.542 636.821 241.093 636.338C242.513 636.068 243.933 635.798 245.396 635.519C249.099 634.882 249.099 634.882 251.946 634.882C252.886 633.921 253.825 632.96 254.793 631.97C258.185 631.048 258.185 631.048 262.088 630.332C263.384 630.088 264.679 629.844 266.014 629.592C267.008 629.416 268.003 629.239 269.027 629.057C263.942 629.057 259.526 629.585 254.526 630.423C249.099 631.314 243.722 632.121 238.246 632.607C233.324 633.106 228.845 634.276 224.101 635.701C217.432 637.68 211.888 638.195 204.973 637.794C204.504 638.755 204.034 639.716 203.55 640.707C199.613 641.258 199.613 641.258 194.653 641.526C188.052 641.881 188.052 641.881 181.531 642.897C176.885 643.828 172.338 643.959 167.608 644.165C159.588 644.568 152.085 645.622 144.211 647.35C126.422 651.119 107.74 649.811 89.6758 649.443C89.6758 650.405 89.6758 651.366 89.6758 652.356C71.3563 652.356 53.0368 652.356 34.1622 652.356C34.1622 651.395 34.1622 650.434 34.1622 649.443C33.3585 649.678 32.5549 649.913 31.7268 650.155C21.111 652.582 10.4068 650.524 0 647.987C0 646.065 0 644.143 0 642.163C7.51569 641.682 15.0314 641.202 22.7748 640.707C22.7748 639.746 22.7748 638.784 22.7748 637.794C36.5136 636.155 50.2067 634.61 64.0542 634.882C64.5239 633.921 64.9936 632.96 65.4776 631.97C65.4776 632.931 65.4776 633.892 65.4776 634.882C66.9748 634.462 68.4721 634.041 70.0147 633.608C76.9916 631.808 84.0491 630.778 91.166 629.734C97.3204 629.097 97.3204 629.097 102.487 626.145C105.238 625.838 107.999 625.608 110.76 625.417C115.786 625.066 120.403 624.57 125.261 623.233C126.994 623.023 128.726 622.812 130.51 622.596C142.748 621.144 142.748 621.144 153.73 615.952C156.46 615.127 156.46 615.127 159.424 614.496C160.416 614.273 161.409 614.049 162.432 613.819C163.465 613.592 164.498 613.365 165.562 613.131C174.219 611.145 181.833 609.171 189.488 604.388C192.407 602.706 195.369 601.479 198.479 600.207C204.734 597.479 209.167 593.649 214.042 588.854C216.361 586.829 216.361 586.829 219.208 586.829C219.677 585.868 220.147 584.907 220.631 583.917C222.129 582.705 223.68 581.56 225.257 580.458C228.461 578.193 231.424 575.926 234.42 573.36C237.704 570.818 239.493 570.231 243.406 569.355C245.793 567.925 248.167 566.47 250.523 564.987C260.952 561.43 274.17 559.638 284.585 563.701C288.027 565.467 291.359 567.311 294.649 569.355C295.036 568.259 295.423 567.163 295.822 566.033C297.396 562.312 298.884 559.971 301.499 556.978C302.255 556.111 303.011 555.243 303.79 554.35C306.829 551.01 309.959 547.785 313.154 544.601C314.357 543.309 315.561 542.018 316.801 540.687C319.925 537.656 322.182 536.28 325.964 534.408C326.728 533.477 327.491 532.545 328.278 531.586C331.975 528.301 334.101 527.766 338.775 526.581C344.336 525.06 345.573 524.617 349.362 519.846C350.096 518.404 350.83 516.963 351.586 515.478C353.01 514.021 354.433 512.565 355.856 511.109C357.768 508.207 359.665 505.293 361.55 502.372C364.575 498.186 364.575 498.186 367.244 495.091C368.183 495.091 369.123 495.091 370.091 495.091C370.592 493.855 370.592 493.855 371.103 492.594C377.039 481.829 387.395 475.4 398.559 471.793C399.277 471.055 399.994 470.318 400.733 469.558C403.822 466.414 407.167 466.623 411.37 465.968C411.84 465.007 412.309 464.046 412.793 463.056C415.142 463.537 417.491 464.017 419.911 464.512C420.169 463.424 420.428 462.335 420.695 461.213C421.052 459.779 421.41 458.345 421.779 456.867C422.126 455.448 422.472 454.029 422.83 452.567C424.192 448.462 425.795 445.997 428.451 442.67C430.704 438.326 432.624 434.23 434.145 429.565C438.608 424.365 442.158 421.846 448.379 419.372C448.849 417.93 449.319 416.488 449.802 415.003C453.265 413.277 455.895 412.091 459.766 412.091C459.836 410.683 459.906 409.275 459.978 407.825C460.678 395.345 461.569 383.262 465.46 371.319C466.473 370.463 466.473 370.463 467.506 369.589C470.956 365.496 472.256 360.665 472.577 355.301C472.117 354.027 471.657 352.753 471.183 351.44C469.536 345.913 469.369 340.91 469.452 335.199C469.458 333.618 469.458 333.618 469.465 332.005C469.48 328.667 469.516 325.329 469.552 321.991C469.567 319.716 469.58 317.441 469.591 315.166C469.623 309.614 469.672 304.063 469.73 298.511C470.67 298.511 471.609 298.511 472.577 298.511C472.313 297.7 472.049 296.889 471.777 296.054C470.518 289.249 473.338 283.071 475.424 276.669C475.6 275.558 475.776 274.446 475.958 273.301C477.018 268.639 479.027 264.929 481.118 260.651C481.499 259.029 481.881 257.408 482.274 255.737C484.405 249.084 487.774 243.872 492.505 238.809C493.445 238.809 494.384 238.809 495.352 238.809C494.882 237.367 494.413 235.926 493.929 234.44C494.78 234.08 495.631 233.72 496.509 233.348C500.101 231.248 501.522 229.139 503.893 225.703C507.328 221.463 508.884 220.045 514.212 218.787C515.504 218.667 516.796 218.546 518.127 218.423C518.127 217.462 518.127 216.501 518.127 215.51C533.079 208.474 533.079 208.474 540.902 211.142C545.729 211.348 549.105 211.257 553.713 209.686C557.143 210.448 557.143 210.448 560.919 211.688C562.168 212.09 563.418 212.491 564.705 212.905C567.947 214.054 567.947 214.054 570.794 215.51C570.133 213.438 570.133 213.438 569.459 211.324C567.805 205.509 567.31 199.749 566.874 193.725C566.828 190.768 566.828 190.768 565.1 189.3C564.919 185.845 564.85 182.384 564.833 178.925C564.813 177.029 564.793 175.133 564.772 173.18C565.101 167.437 566.23 162.721 567.947 157.264C568.45 154.844 568.937 152.419 569.37 149.984C570.31 149.984 571.249 149.984 572.217 149.984C572.834 148.452 573.45 146.92 574.085 145.342C578.133 135.77 582.689 127.331 592.59 123.318C593.852 122.987 595.115 122.657 596.415 122.317C596.415 121.356 596.415 120.395 596.415 119.404C597.942 118.894 599.469 118.383 601.041 117.857C607.482 115.081 609.014 111.102 612.073 104.843C613.496 103.387 614.92 101.931 616.343 100.474C616.754 99.3332 617.165 98.1919 617.589 97.0161C619.606 92.2007 622.707 89.5962 626.307 85.9129C626.777 84.7116 627.247 83.5103 627.731 82.2726C629.611 77.4648 632.666 74.9514 636.271 71.3514C637.269 69.8197 638.268 68.288 639.296 66.7099C641.965 62.6145 641.965 62.6145 646.235 59.7022C647.248 57.9002 647.248 57.9002 648.281 56.0618C650.505 52.4214 650.505 52.4214 653.263 51.0563C656.669 49.5822 656.669 49.5822 658.957 45.0497C661.893 40.7722 661.893 40.7722 665.629 39.8621C666.745 39.6819 667.861 39.5017 669.01 39.3161C669.397 38.4658 669.784 37.6155 670.183 36.7394C675.156 27.09 688.012 21.3476 697.479 17.4738C701.069 15.2605 704.603 12.9778 708.115 10.6367C712.218 8.47031 715.705 8.00461 720.253 7.28076C725.141 5.455 729.923 3.43217 734.732 1.39927C736.061 0.937511 737.389 0.475752 738.758 0ZM572.217 214.054C573.641 218.423 573.641 218.423 573.641 218.423L572.217 214.054ZM278.191 622.323C276.838 622.724 275.486 623.126 274.093 623.54C271.445 624.375 268.809 625.249 266.181 626.145C274.005 628.727 282.076 626.635 289.35 623.125C290.159 622.68 290.969 622.235 291.802 621.777C286.673 619.916 283.339 620.761 278.191 622.323ZM14.2343 647.987C14.2343 648.468 14.2343 648.948 14.2343 649.443C18.4618 649.443 22.6894 649.443 27.0451 649.443C27.0451 648.963 27.0451 648.482 27.0451 647.987C22.8175 647.987 18.5899 647.987 14.2343 647.987Z" fill="#BF4036"/>
<path d="M738.758 0C739.697 0.48053 740.637 0.96106 741.605 1.45615C741.605 6.74198 741.605 12.0278 741.605 17.4738C739.898 17.8201 739.898 17.8201 738.157 18.1734C709.096 24.4893 686.253 39.2833 664.74 59.7022C663.45 60.9185 662.16 62.1349 660.831 63.3881C633.714 90.0468 612.585 125.76 603.532 163.089C603.063 163.089 602.593 163.089 602.109 163.089C601.971 152.758 601.965 142.729 603.532 132.51C592.078 140.093 584.258 149.386 580.758 163.089C580.289 167.525 580.216 171.917 580.224 176.376C580.225 177.641 580.226 178.906 580.228 180.21C580.547 198.68 584.803 216.813 589.988 234.446C590.722 237.353 590.722 237.353 590.722 241.721C587.516 240.089 584.322 238.438 581.136 236.767C576.761 234.488 572.36 232.271 567.947 230.072C566.974 229.563 566.002 229.055 565 228.53C553.849 223.37 538.654 224.046 526.973 227.251C513.952 232.889 505.235 242.592 498.199 254.826C497.665 255.699 497.131 256.572 496.581 257.471C479.035 289.184 478.567 337.773 487.808 372.107C489.301 377.172 490.864 382.199 492.584 387.189C495.486 395.663 495.486 395.663 493.929 400.442C488.779 391.873 483.961 383.295 479.694 374.231C478.77 376.534 477.852 378.841 476.937 381.148C476.425 382.431 475.913 383.715 475.385 385.038C469.803 400.173 472.317 416.982 475.424 432.477C471.692 430.95 470.024 430.075 467.951 426.47C467.599 425.569 467.247 424.668 466.884 423.74C455.414 426.103 449.382 431.575 442.685 441.214C436.177 451.642 433.57 462.652 431.298 474.705C429.419 474.705 427.54 474.705 425.604 474.705C406.106 476.796 390.297 489.874 377.208 503.828C375.988 505.116 374.767 506.404 373.51 507.73C367.533 514.273 362.621 520.567 358.703 528.583C361.522 528.583 364.34 528.583 367.244 528.583C363.756 532.937 361.24 533.534 355.856 534.134C336.486 537.372 320.182 551.965 308.883 567.899C305.902 572.677 303.077 577.53 300.343 582.46C295.482 581.854 291.905 581.059 287.532 578.729C276.539 573.62 261.643 575.626 250.523 579.548C240.327 583.684 232.519 590.529 224.039 597.477C218.387 602.091 212.604 606.325 206.397 610.127C205.443 610.715 204.488 611.302 203.505 611.908C172.098 629.5 134.497 634.347 99.6398 639.25C131.682 637.01 163.455 633.789 195.095 628.085C199.356 627.339 203.632 626.7 207.909 626.054C213.994 625.112 219.946 623.931 225.935 622.493C229.579 621.686 233.228 621.091 236.911 620.502C247.574 618.731 258.071 616.281 268.595 613.808C271.743 613.07 274.895 612.346 278.046 611.623C290.461 608.743 302.67 605.376 314.855 601.607C320.271 599.934 320.271 599.934 325.803 598.694C330.406 597.519 330.406 597.519 331.942 593.859C332.171 592.621 332.4 591.382 332.637 590.105C334.624 581.605 337.361 576.154 344.024 570.447C349.058 567.727 353.327 566.697 358.909 565.846C359.781 565.562 360.652 565.279 361.55 564.987C362.02 563.545 362.49 562.103 362.974 560.618C359.685 561.099 356.397 561.579 353.01 562.074C355.856 559.162 355.856 559.162 360.01 558.667C364.522 558.138 364.522 558.138 366.96 554.788C367.67 553.558 368.38 552.329 369.112 551.062C379.39 535.017 395.261 524.035 413.505 519.3C418.965 518.287 424.427 518.181 429.964 517.935C436.315 517.575 440.333 517.257 445.354 513.202C453.425 507.05 464.477 508.711 474.001 509.653C478.624 510.724 482.438 512.104 486.812 514.021C486.865 512.929 486.918 511.836 486.973 510.711C488.126 492.338 492.352 475.206 506.028 462.237C510.549 458.675 513.741 457.456 519.55 457.231C520.782 457.126 522.013 457.021 523.281 456.913C536.028 456.235 545.332 460.226 556.559 465.968C557.449 470.428 557.449 470.428 557.983 474.705C556.339 473.804 554.695 472.903 553.001 471.975C541.062 465.943 527.687 463.194 514.746 467.607C502.667 476.433 498.798 487.969 496.247 502.236C494.843 510.967 494.315 519.747 493.929 528.583C492.745 528.074 491.562 527.566 490.342 527.041C488.796 526.379 487.249 525.716 485.655 525.034C484.119 524.375 482.583 523.716 481.001 523.037C470.372 518.597 458.234 517.782 447.312 521.939C442.988 523.744 442.988 523.744 441.262 525.671C438.451 525.982 435.639 526.284 432.822 526.536C412.897 528.353 393.909 533.611 379.699 549.151C375.951 553.911 373.714 559.213 371.158 564.714C366.854 573.287 366.854 573.287 362.373 575.18C359.937 575.482 357.495 575.738 355.05 575.948C349.496 577.051 346.992 580.215 343.618 584.673C339.043 592.952 337.64 602.312 336.729 611.675C335.928 615.952 335.928 615.952 333.632 618.176C329.447 620.818 325.282 622.339 320.627 623.961C318.832 624.593 317.038 625.227 315.244 625.861C313.615 626.435 311.986 627.009 310.307 627.601C308.286 628.38 306.269 629.166 304.257 629.967C297.809 632.386 291.277 634.376 284.685 636.338C296.488 634.464 308.108 632.112 319.737 629.33C321.355 628.946 322.973 628.561 324.64 628.164C336.903 625.213 349.029 621.913 361.133 618.351C364.689 617.324 368.255 616.344 371.825 615.372C385.506 611.645 399.106 607.725 412.616 603.393C413.892 602.989 415.169 602.586 416.484 602.17C423.274 599.956 429.591 597.41 435.892 593.995C439.95 591.837 444.164 590.096 448.379 588.285C449.319 587.805 450.258 587.324 451.226 586.829C441.382 585.87 437.101 587.169 429.23 593.069C418.065 600.759 404.815 604.823 391.976 608.58C390.88 608.906 389.783 609.232 388.654 609.567C383.312 611.053 379.645 611.814 374.361 610.127C376.761 609.213 379.164 608.304 381.567 607.397C382.905 606.89 384.242 606.383 385.62 605.861C390.019 604.303 390.019 604.303 394.723 603.057C401.186 601.009 406.908 598.148 412.882 594.929C414.067 594.291 415.251 593.653 416.471 592.996C426.803 587.259 435.823 580.453 444.774 572.7C448.189 569.744 451.662 566.863 455.14 563.986C456.249 563.049 457.357 562.112 458.499 561.147C461.19 559.162 461.19 559.162 464.037 559.162C463.455 566.296 460.632 568.918 455.407 573.451C454.099 574.601 452.791 575.752 451.443 576.937C449.926 578.23 449.926 578.23 448.379 579.548C466.708 574.009 486.175 564.34 501.151 552.228C525.34 533.298 546.085 522.005 576.487 519.846C554.408 515.849 536.617 521.607 518.127 534.408C513.338 537.974 508.629 541.648 503.92 545.324C497.772 550.1 491.557 554.665 485.032 558.889C483.586 559.829 482.141 560.77 480.651 561.739C476.388 563.747 475.429 563.451 471.154 562.074C472.807 561.297 474.46 560.52 476.164 559.72C482.674 556.384 487.952 552.13 493.484 547.331C495.482 545.638 497.482 543.947 499.483 542.257C500.467 541.423 501.45 540.588 502.463 539.729C521.144 523.956 538.92 509.033 564.121 509.198C565.31 509.2 566.499 509.202 567.723 509.204C576.386 509.342 584.123 510.477 592.145 514.021C592.747 512.738 592.747 512.738 593.361 511.429C620.752 457.137 676.253 403.864 733.064 384.424C735.883 383.943 738.701 383.463 741.605 382.968C741.605 416.124 741.605 449.281 741.605 483.442C738.317 484.403 735.029 485.364 731.641 486.354C731.641 487.316 731.641 488.277 731.641 489.267C727.44 492.455 723.242 494.107 718.296 495.637C712.67 497.435 708.862 499.957 704.262 503.641C701.391 505.519 698.932 506.195 695.61 506.923C690.028 507.634 690.028 507.634 687.515 512.565C684.012 514.112 684.012 514.112 679.864 515.478C674.466 517.263 670.576 519.12 666.163 522.758C658.772 526.941 658.772 526.941 654.242 527.673C650.379 528.614 648.419 529.878 645.168 532.132C639.987 535.639 635.53 536.99 629.404 537.826C626.04 538.638 626.04 538.638 622.977 541.546C618.596 545.08 614.697 546.487 609.404 548.241C601.415 550.969 601.415 550.969 594.013 554.976C588.475 558.182 583.158 559.56 576.993 561.039C573.411 561.851 573.411 561.851 570.794 564.987C568.518 565.68 566.238 566.363 563.943 566.989C555.371 569.494 546.991 572.611 539.122 576.909C535.367 578.931 533.34 579.607 528.981 580.185C524.042 580.969 521.537 582.072 517.237 584.463C510.136 588.328 503.217 589.915 495.38 591.567C491.587 592.526 488.841 593.613 485.477 595.566C478.918 599.327 471.833 600.245 464.521 601.698C459.383 602.939 455.403 604.816 450.842 607.443C446.883 609.417 442.753 609.634 438.415 610.127C435.562 611.08 432.715 612.05 429.875 613.04C428.319 613.28 426.763 613.52 425.159 613.768C423.897 614.008 422.635 614.248 421.334 614.496C420.864 615.457 420.395 616.418 419.911 617.408C416.758 618.278 416.758 618.278 412.882 618.955C407.687 619.837 407.687 619.837 402.829 621.777C400.585 622.305 398.329 622.784 396.068 623.233C394.8 623.488 393.532 623.743 392.226 624.006C389.338 624.549 386.433 624.999 383.524 625.417C382.379 625.657 381.234 625.897 380.055 626.145C379.585 627.106 379.115 628.067 378.631 629.057C375.729 629.928 375.729 629.928 372.048 630.604C370.855 630.832 369.663 631.059 368.434 631.293C365.497 631.785 362.548 632.195 359.593 632.556C354.061 633.489 349.206 635.122 343.935 637.066C335.976 639.92 328.688 641.589 320.271 642.163C318.862 642.643 317.452 643.124 316 643.619C314.047 643.836 312.089 644.014 310.129 644.165C305.378 644.643 301.414 645.605 296.962 647.35C289.582 650.103 282.484 649.844 274.721 649.443C274.721 650.404 274.721 651.366 274.721 652.356C256.364 654.456 237.915 653.973 219.474 653.903C216.13 653.896 212.785 653.889 209.441 653.883C201.309 653.867 193.177 653.843 185.045 653.812C185.045 652.851 185.045 651.89 185.045 650.9C192.285 647.911 198.592 645.996 206.397 645.075C207.204 644.855 208.011 644.636 208.843 644.409C213.551 643.263 218.327 642.698 223.122 642.072C224.611 641.873 224.611 641.873 226.13 641.671C228.567 641.346 231.004 641.026 233.442 640.706C233.442 639.745 233.442 638.784 233.442 637.794C235.992 637.306 238.542 636.821 241.093 636.338C242.513 636.068 243.933 635.797 245.396 635.519C249.099 634.882 249.099 634.882 251.946 634.882C252.886 633.921 253.825 632.96 254.793 631.97C258.185 631.048 258.185 631.048 262.088 630.331C263.384 630.087 264.679 629.843 266.014 629.592C267.008 629.416 268.003 629.239 269.027 629.057C263.942 629.057 259.526 629.585 254.526 630.422C249.099 631.314 243.722 632.12 238.246 632.607C233.324 633.106 228.845 634.276 224.101 635.701C217.432 637.68 211.888 638.195 204.973 637.794C204.504 638.755 204.034 639.716 203.55 640.706C199.613 641.258 199.613 641.258 194.653 641.526C188.052 641.881 188.052 641.881 181.531 642.896C176.885 643.828 172.338 643.959 167.608 644.165C159.588 644.568 152.085 645.622 144.211 647.35C126.422 651.119 107.74 649.811 89.6758 649.443C89.6758 650.404 89.6758 651.366 89.6758 652.356C71.3563 652.356 53.0368 652.356 34.1622 652.356C34.1622 651.395 34.1622 650.434 34.1622 649.443C33.3585 649.678 32.5549 649.913 31.7268 650.154C21.111 652.582 10.4068 650.524 0 647.987C0 646.065 0 644.143 0 642.163C7.51569 641.682 15.0314 641.202 22.7748 640.706C22.7748 639.745 22.7748 638.784 22.7748 637.794C36.5136 636.155 50.2067 634.609 64.0542 634.882C64.5239 633.921 64.9936 632.96 65.4776 631.97C65.4776 632.931 65.4776 633.892 65.4776 634.882C66.9748 634.461 68.4721 634.041 70.0147 633.608C76.9916 631.807 84.0491 630.778 91.166 629.734C97.3204 629.097 97.3204 629.097 102.487 626.145C105.238 625.838 107.999 625.608 110.76 625.417C115.786 625.066 120.403 624.57 125.261 623.233C126.994 623.023 128.726 622.812 130.51 622.596C142.748 621.144 142.748 621.144 153.73 615.952C156.46 615.127 156.46 615.127 159.424 614.496C160.416 614.272 161.409 614.049 162.432 613.819C163.465 613.592 164.498 613.365 165.562 613.131C174.219 611.145 181.833 609.171 189.488 604.388C192.407 602.705 195.369 601.479 198.479 600.207C204.734 597.479 209.167 593.649 214.042 588.854C216.361 586.829 216.361 586.829 219.208 586.829C219.677 585.868 220.147 584.907 220.631 583.917C222.129 582.705 223.68 581.56 225.257 580.458C228.461 578.193 231.424 575.926 234.42 573.359C237.704 570.818 239.493 570.231 243.406 569.355C245.793 567.925 248.167 566.47 250.523 564.987C260.952 561.43 274.17 559.638 284.585 563.701C288.027 565.467 291.359 567.311 294.649 569.355C295.036 568.259 295.423 567.163 295.822 566.033C297.396 562.312 298.884 559.97 301.499 556.978C302.255 556.111 303.011 555.243 303.79 554.35C306.829 551.01 309.959 547.785 313.154 544.601C314.357 543.309 315.561 542.018 316.801 540.687C319.925 537.656 322.182 536.28 325.964 534.408C326.728 533.477 327.491 532.545 328.278 531.586C331.975 528.301 334.101 527.766 338.775 526.581C344.336 525.06 345.573 524.617 349.362 519.846C350.096 518.404 350.83 516.963 351.586 515.478C353.01 514.021 354.433 512.565 355.856 511.109C357.769 508.207 359.665 505.293 361.55 502.372C364.575 498.186 364.575 498.186 367.244 495.091C368.183 495.091 369.123 495.091 370.091 495.091C370.592 493.855 370.592 493.855 371.103 492.594C377.039 481.828 387.395 475.4 398.559 471.793C399.277 471.055 399.994 470.318 400.733 469.558C403.822 466.414 407.167 466.623 411.37 465.968C411.84 465.007 412.309 464.046 412.793 463.056C415.142 463.537 417.491 464.017 419.911 464.512C420.169 463.424 420.428 462.335 420.695 461.213C421.052 459.779 421.41 458.345 421.779 456.867C422.126 455.448 422.472 454.029 422.83 452.567C424.192 448.462 425.795 445.997 428.451 442.67C430.704 438.326 432.624 434.23 434.145 429.565C438.608 424.365 442.158 421.846 448.379 419.372C448.849 417.93 449.319 416.488 449.802 415.003C453.265 413.277 455.895 412.091 459.766 412.091C459.836 410.683 459.906 409.275 459.978 407.825C460.678 395.345 461.569 383.262 465.46 371.319C466.473 370.463 466.473 370.463 467.506 369.589C470.956 365.496 472.256 360.665 472.577 355.301C472.117 354.027 471.657 352.753 471.183 351.44C469.536 345.913 469.369 340.91 469.452 335.199C469.458 333.618 469.458 333.618 469.465 332.005C469.48 328.667 469.516 325.329 469.553 321.991C469.567 319.716 469.58 317.441 469.591 315.166C469.623 309.614 469.672 304.063 469.73 298.511C470.67 298.511 471.609 298.511 472.577 298.511C472.313 297.7 472.049 296.889 471.777 296.054C470.518 289.249 473.338 283.071 475.424 276.669C475.6 275.557 475.776 274.446 475.958 273.301C477.018 268.639 479.027 264.929 481.118 260.651C481.5 259.029 481.881 257.408 482.274 255.737C484.405 249.084 487.774 243.872 492.505 238.809C493.445 238.809 494.384 238.809 495.352 238.809C494.882 237.367 494.413 235.926 493.929 234.44C494.78 234.08 495.631 233.72 496.509 233.348C500.101 231.248 501.522 229.139 503.893 225.703C507.328 221.463 508.884 220.045 514.213 218.787C515.504 218.667 516.796 218.546 518.127 218.423C518.127 217.462 518.127 216.501 518.127 215.51C533.079 208.474 533.079 208.474 540.902 211.142C545.729 211.348 549.105 211.257 553.713 209.686C557.143 210.448 557.143 210.448 560.919 211.688C562.168 212.09 563.418 212.491 564.705 212.905C567.947 214.054 567.947 214.054 570.794 215.51C570.133 213.438 570.133 213.438 569.459 211.324C567.805 205.509 567.31 199.749 566.874 193.725C566.828 190.768 566.828 190.768 565.1 189.3C564.919 185.845 564.85 182.384 564.833 178.925C564.813 177.029 564.793 175.133 564.772 173.18C565.101 167.437 566.23 162.721 567.947 157.264C568.45 154.844 568.937 152.419 569.37 149.984C570.31 149.984 571.249 149.984 572.217 149.984C572.834 148.452 573.45 146.92 574.085 145.342C578.133 135.77 582.689 127.331 592.59 123.318C593.852 122.987 595.115 122.657 596.415 122.317C596.415 121.356 596.415 120.395 596.415 119.404C597.942 118.894 599.469 118.383 601.042 117.857C607.482 115.081 609.014 111.102 612.073 104.843C613.496 103.387 614.92 101.931 616.343 100.474C616.754 99.3332 617.165 98.1919 617.589 97.0161C619.606 92.2007 622.707 89.5961 626.307 85.9129C626.777 84.7116 627.247 83.5103 627.731 82.2725C629.611 77.4648 632.666 74.9514 636.271 71.3514C637.269 69.8197 638.268 68.288 639.296 66.7099C641.965 62.6145 641.965 62.6145 646.235 59.7022C647.248 57.9002 647.248 57.9002 648.281 56.0618C650.505 52.4214 650.505 52.4214 653.263 51.0563C656.669 49.5822 656.669 49.5822 658.957 45.0497C661.893 40.7722 661.893 40.7722 665.629 39.8621C666.745 39.6819 667.861 39.5017 669.01 39.3161C669.397 38.4658 669.784 37.6155 670.183 36.7394C675.156 27.09 688.012 21.3476 697.479 17.4738C701.069 15.2605 704.603 12.9778 708.115 10.6367C712.218 8.47031 715.705 8.00461 720.253 7.28076C725.141 5.455 729.923 3.43217 734.732 1.39927C736.061 0.937511 737.389 0.475752 738.758 0ZM572.217 214.054C573.641 218.423 573.641 218.423 573.641 218.423L572.217 214.054ZM278.191 622.323C276.838 622.724 275.486 623.126 274.093 623.54C271.445 624.375 268.809 625.249 266.181 626.145C274.005 628.727 282.076 626.635 289.35 623.125C290.159 622.68 290.969 622.235 291.802 621.777C286.673 619.916 283.339 620.761 278.191 622.323ZM14.2343 647.987C14.2343 648.468 14.2343 648.948 14.2343 649.443C18.4618 649.443 22.6894 649.443 27.0451 649.443C27.0451 648.963 27.0451 648.482 27.0451 647.987C22.8175 647.987 18.5899 647.987 14.2343 647.987Z" fill="#040202"/>
<path d="M676.127 285.406C674.664 286.111 673.202 286.817 671.695 287.544C649.04 298.668 631.966 311.904 617.766 333.459C619.602 332.324 619.602 332.324 621.475 331.166C659.324 308.163 697.82 302.879 741.604 302.879C741.604 329.308 741.604 355.738 741.604 382.968C732.68 386.331 723.755 389.695 714.559 393.161C693.996 403.384 675.646 416.423 659.046 432.477C657.242 434.03 655.433 435.578 653.619 437.118C631.659 456.775 614.68 481.385 598.116 505.724C596.182 508.535 594.189 511.294 592.145 514.021C587.206 513.354 582.645 512.723 577.91 511.109C549.204 508.388 530.909 517.71 509.094 536.094C506.999 537.874 504.908 539.658 502.819 541.446C494.884 548.231 486.765 554.575 478.271 560.618C487.308 555.765 495.532 550.281 503.714 544.054C542.75 514.82 542.75 514.82 567.946 516.934C571.854 517.684 575.514 518.688 579.334 519.846C579.334 520.326 579.334 520.807 579.334 521.302C578.548 521.329 577.761 521.356 576.951 521.385C547.775 522.646 529.897 533.013 506.561 549.947C493.775 559.217 480.709 566.907 466.616 573.906C464.445 574.994 464.445 574.994 462.229 576.104C460.868 576.764 459.506 577.424 458.104 578.103C456.881 578.699 455.659 579.294 454.399 579.907C451.226 581.004 451.226 581.004 446.955 579.548C447.95 578.687 448.944 577.825 449.969 576.937C451.264 575.787 452.56 574.636 453.894 573.45C455.183 572.319 456.471 571.187 457.798 570.021C461.184 566.449 462.616 563.865 464.036 559.162C462.157 560.641 460.278 562.12 458.399 563.599C456.735 564.908 455.069 566.214 453.401 567.517C449.213 570.795 445.058 574.098 440.984 577.523C431.036 585.792 420.884 591.906 409.279 597.471C404.402 599.738 404.402 599.738 400.677 602.244C396.179 604.859 391.714 606.105 386.727 607.488C384.941 607.989 383.156 608.49 381.316 609.007C379.96 609.377 378.604 609.746 377.207 610.127C390.449 607.662 401.967 604.2 414.216 598.478C415.374 597.981 416.532 597.483 417.725 596.971C423.147 594.629 427.831 592.139 432.632 588.649C439.069 584.299 445.171 584.667 452.649 585.373C431.845 608.923 379.596 614.954 350.515 622.388C343.81 624.107 337.131 625.904 330.457 627.743C321.582 630.18 312.683 632.433 303.723 634.518C301.717 634.999 301.717 634.999 299.67 635.49C298.376 635.793 297.082 636.095 295.75 636.406C294.041 636.808 294.041 636.808 292.299 637.218C288.754 637.829 285.426 637.893 281.838 637.794C285.84 633.701 290.575 632.988 295.894 631.514C306.267 628.522 316.169 624.964 325.964 620.32C327.482 619.761 328.999 619.202 330.562 618.625C335.005 616.224 335.005 616.224 336.073 610.787C336.359 608.752 336.606 606.711 336.818 604.667C338.266 592.258 342.068 583.518 351.691 575.339C354.851 573.477 356.616 573.457 360.215 573.541C363.148 573.562 363.148 573.562 365.82 572.267C368.464 568.137 370.304 563.878 372.259 559.367C379.1 544.48 392.71 535.75 407.188 529.584C415.369 526.726 423.741 525.962 432.321 525.336C438.852 524.798 442.845 523.697 448.379 519.846C462.966 514.741 477.75 519.13 491.081 525.671C491.551 526.151 492.021 526.632 492.505 527.127C492.661 525.437 492.817 523.748 492.978 522.007C496.824 482.314 496.824 482.314 511.988 468.244C519.167 463.281 526.851 463.86 535.208 464.512C542.819 466.268 549.701 469.471 556.559 473.249C556.251 471.945 556.251 471.945 555.936 470.615C550.379 444.046 553.547 417.611 565.1 393.161C565.696 391.866 566.292 390.57 566.907 389.236C575.33 372.201 587.308 357.777 601.386 345.375C607.023 340.353 612.055 335.439 615.987 328.908C628.219 309.724 643.997 292.105 665.896 284.859C670.274 283.981 672.018 284.147 676.127 285.406Z" fill="#C24137"/>
<path d="M741.604 17.4736C741.604 26.6037 741.604 35.7338 741.604 45.1405C737.934 46.6121 734.264 48.0838 730.483 49.6C699.284 62.6052 672.23 86.7408 658.3 118.528C648.195 143.096 641.401 167.303 641.519 194.123C641.521 195.848 641.523 197.573 641.525 199.35C641.643 210.33 642.469 220.316 645.3 230.936C646.234 234.44 646.234 234.44 646.234 238.809C645.001 238.568 643.768 238.328 642.498 238.081C632.197 236.637 620.924 235.297 611.272 239.628C602.698 248.399 599.47 255.548 597.838 267.932C597.025 267.616 596.212 267.301 595.375 266.976C583.968 262.969 571.939 261.231 560.295 265.201C559.062 266.102 557.829 267.003 556.559 267.932C555.779 268.5 554.999 269.069 554.196 269.655C541.305 279.886 535.415 293.066 530.937 308.704C529.908 311.801 528.87 314.896 527.823 317.987C524.425 328.042 523.561 337.377 523.553 347.929C523.535 349.054 523.518 350.18 523.5 351.339C523.482 358.527 524.567 364.399 526.667 371.318C526.667 373.241 526.667 375.163 526.667 377.143C525.257 377.143 523.848 377.143 522.396 377.143C522.872 388.155 523.636 397.619 528.09 407.722C527.125 407.743 526.16 407.763 525.165 407.785C509.97 408.581 499.517 413.897 489.102 425.213C486.255 428.81 484.483 432.681 482.54 436.845C479.2 439.993 476.057 442.329 472.043 444.49C461.604 451.609 456.501 461.303 452.649 473.249C454.401 471.588 454.401 471.588 456.118 468.061C457.219 466.305 457.219 466.305 458.342 464.512C459.282 464.512 460.221 464.512 461.189 464.512C458.531 472.844 455.705 481.078 452.649 489.267C454.527 490.228 456.406 491.189 458.342 492.179C456.999 492.305 455.656 492.43 454.272 492.56C429.493 495.334 407.22 506.196 389.145 523.862C384.514 528.312 379.55 532.266 374.544 536.262C371.554 538.617 371.554 538.617 369.428 541.096C366.539 543.804 363.61 544.852 359.948 546.239C355.405 547.731 355.405 547.731 351.585 550.425C349.63 550.743 347.673 551.043 345.714 551.335C335.445 553.603 330.251 560.977 324.718 569.628C322.462 573.381 321.149 576.687 320.27 581.004C319.292 581.059 318.314 581.113 317.306 581.169C316.024 581.265 314.741 581.361 313.42 581.459C312.148 581.544 310.877 581.628 309.566 581.715C305.552 582.562 304.424 583.77 301.765 586.829C298.265 586.445 295.283 585.075 291.979 583.825C275.908 579.223 258.217 582.304 243.805 590.481C233.926 597.187 225.599 605.741 217.839 614.865C214.314 617.954 212.733 618.046 208.175 617.772C207.038 617.719 205.9 617.667 204.728 617.613C203.869 617.545 203.01 617.478 202.126 617.408C202.126 618.369 202.126 619.33 202.126 620.32C195.85 621.925 190.05 621.888 183.621 621.776C186.874 617.979 189.659 616.492 194.297 614.86C208.374 609.308 219.518 600.094 230.883 590.185C245.036 578.255 258.181 574.605 276.472 574.645C285.091 575.504 292.544 578.75 300.342 582.46C300.914 580.87 300.914 580.87 301.499 579.247C310.048 558.677 327.765 543.384 347.315 534.407C353.433 532.489 359.503 531.069 365.82 530.039C363.471 529.558 361.122 529.078 358.702 528.583C367.15 504.92 390.732 487.113 412.148 476.594C416.834 474.793 419.865 474.224 424.803 474.432C426.034 474.472 427.265 474.511 428.534 474.552C429.902 474.628 429.902 474.628 431.297 474.705C431.517 471.867 431.517 471.867 431.742 468.972C433.648 452.523 440.79 439.294 452.738 427.926C457.742 424.658 460.933 423.514 466.883 423.74C470.174 427.198 470.174 427.198 472.577 431.021C473.516 431.501 474.455 431.982 475.423 432.477C475.115 431.452 474.807 430.427 474.489 429.371C469.398 410.902 468.742 392.713 477.825 375.505C478.442 374.604 479.058 373.703 479.694 372.775C483.725 377.799 486.448 383.346 489.213 389.156C489.669 390.102 490.125 391.048 490.595 392.023C491.711 394.341 492.82 396.663 493.928 398.985C491.211 387.081 491.211 387.081 487.434 375.505C476.076 340.893 478.809 294.843 493.35 261.783C501.241 245.839 511.02 231.878 528.09 225.703C548.323 221.518 565.181 224.658 582.536 236.01C583.828 236.934 585.12 237.857 586.451 238.809C587.86 239.77 589.269 240.731 590.721 241.721C590.477 240.842 590.233 239.963 589.982 239.057C572.05 174.078 572.05 174.078 583.037 151.599C588.827 142.664 594.967 134.885 604.955 131.053C604.72 132.885 604.485 134.717 604.243 136.605C603.374 144.471 603.402 152.27 603.532 160.176C603.708 159.202 603.884 158.228 604.065 157.224C613.84 110.665 650.864 63.9232 688.937 37.8598C705.289 27.3303 721.867 17.4736 741.604 17.4736Z" fill="#F9BF89"/>
<path d="M741.606 45.1411C741.606 130.195 741.606 215.249 741.606 302.88C723.991 303.601 723.991 303.601 706.02 304.336C677.953 308.466 650.579 315.51 625.802 329.887C622.038 332.003 622.038 332.003 617.768 333.459C627.13 312.531 646.577 298.219 666.164 288.318C668.99 287.285 671.832 286.292 674.705 285.406C655.444 287.542 639.324 299.246 627.242 314.324C622.36 320.884 617.806 327.53 613.586 334.551C608.801 342.138 602.066 347.141 594.993 352.389C593.101 348.519 593.957 347.074 595.099 342.952C595.459 341.628 595.82 340.303 596.191 338.939C596.588 337.521 596.986 336.103 597.395 334.642C598.202 331.713 599.009 328.784 599.814 325.854C600.211 324.416 600.608 322.978 601.017 321.496C601.951 318.033 602.826 314.568 603.65 311.076C608.644 290.186 616.625 271.745 635.027 260.014C645.27 254.265 653.164 252.949 664.741 253.371C664.396 252.451 664.051 251.531 663.695 250.584C660.874 242.878 658.271 235.125 655.933 227.251C655.473 225.706 655.012 224.161 654.538 222.57C651.669 208.999 651.655 195.034 651.663 181.2C651.662 179.572 651.661 177.944 651.66 176.267C651.748 162.027 652.917 148.068 654.777 133.966C653.837 133.966 652.898 133.966 651.93 133.966C662.528 97.4742 688.104 70.5267 720.254 52.4219C735.212 45.1411 735.212 45.1411 741.606 45.1411Z" fill="#EA7036"/>
<path d="M676.128 285.406C674.665 286.111 673.203 286.817 671.696 287.544C649.041 298.668 631.967 311.904 617.767 333.459C619.603 332.324 619.603 332.324 621.476 331.166C652.815 312.12 688.138 302.513 724.524 302.788C730.161 302.818 735.798 302.848 741.605 302.879C741.605 314.893 741.605 326.906 741.605 339.283C737.583 339.403 733.561 339.523 729.417 339.647C716.627 340.231 705.424 342.509 693.209 346.564C690.759 347.302 690.759 347.302 688.26 348.054C652.872 359.577 625.71 387.419 608.515 420.373C603.166 430.954 598.51 441.501 597.556 453.523C595.915 458.861 592.293 461.581 588.231 465.058C580.765 471.736 574.027 477.889 570.794 487.811C563.677 484.898 563.677 484.898 560.563 483.26C550.389 480.022 540.964 481.57 531.383 485.996C514.294 495.416 507.109 513.517 501.046 531.495C499.637 531.495 498.228 531.495 496.776 531.495C493.598 528.244 495.01 520.835 494.997 516.479C495.017 499.439 496.158 484.631 508.163 471.793C515.622 464.873 521.273 464.095 531.055 464.188C540.34 464.913 548.432 468.772 556.56 473.249C556.354 472.38 556.149 471.511 555.937 470.615C550.38 444.046 553.547 417.611 565.1 393.161C565.697 391.866 566.293 390.57 566.907 389.236C575.33 372.201 587.309 357.777 601.387 345.375C607.024 340.353 612.055 335.439 615.988 328.908C628.22 309.724 643.997 292.105 665.897 284.859C670.275 283.981 672.019 284.147 676.128 285.406Z" fill="#FAC088"/>
<path d="M740.18 119.404C740.65 119.404 741.12 119.404 741.604 119.404C741.604 179.951 741.604 240.498 741.604 302.879C723.989 303.6 723.989 303.6 706.018 304.336C677.951 308.465 650.577 315.51 625.8 329.886C622.036 332.002 622.036 332.002 617.766 333.459C627.129 312.531 646.575 298.218 666.162 288.318C668.988 287.285 671.83 286.292 674.703 285.406C655.442 287.542 639.322 299.245 627.241 314.324C622.284 320.982 617.638 327.776 613.229 334.824C609.689 340.402 605.905 344.079 600.685 348.02C599.745 347.54 598.806 347.059 597.838 346.564C613.308 316.828 631.012 285.332 664.355 274.82C679.608 271.334 693.015 274.089 707.442 279.581C706.349 275.939 705.251 272.299 704.15 268.66C703.825 267.582 703.499 266.504 703.164 265.393C701.591 260.232 699.974 255.172 697.923 250.185C690.049 228.995 689.414 196.136 697.478 174.738C701.093 171.181 703.658 169.226 708.42 167.639C709.507 167.099 710.593 166.558 711.712 166.001C712.686 163.097 713.63 160.183 714.559 157.264C721.415 144.313 729.952 129.868 740.18 119.404Z" fill="#060302"/>
<path d="M466.883 423.74C467.763 424.881 468.644 426.022 469.552 427.198C473.409 432.073 476.659 432.66 482.54 433.933C482.54 434.894 482.54 435.855 482.54 436.845C479.207 439.865 475.988 442.366 472.043 444.49C461.604 451.609 456.501 461.303 452.648 473.249C454.401 471.588 454.401 471.588 456.118 468.061C456.852 466.89 457.586 465.719 458.342 464.512C459.282 464.512 460.221 464.512 461.189 464.512C458.531 472.844 455.705 481.078 452.648 489.266C454.527 490.227 456.406 491.188 458.342 492.179C456.999 492.304 455.656 492.43 454.272 492.56C429.493 495.334 407.22 506.196 389.145 523.861C384.514 528.312 379.55 532.266 374.544 536.261C371.554 538.617 371.554 538.617 369.428 541.096C366.539 543.804 363.61 544.851 359.948 546.238C355.405 547.731 355.405 547.731 351.585 550.425C349.63 550.742 347.673 551.043 345.714 551.335C335.445 553.603 330.251 560.976 324.718 569.628C322.462 573.381 321.149 576.687 320.27 581.004C318.803 581.086 318.803 581.086 317.306 581.169C316.024 581.265 314.741 581.36 313.42 581.459C312.148 581.543 310.877 581.628 309.566 581.715C305.552 582.562 304.424 583.77 301.765 586.829C298.265 586.445 295.283 585.074 291.979 583.825C275.908 579.223 258.217 582.304 243.805 590.48C233.926 597.186 225.599 605.74 217.839 614.865C214.314 617.953 212.733 618.046 208.175 617.772C207.038 617.719 205.9 617.667 204.728 617.612C203.869 617.545 203.01 617.477 202.126 617.408C202.126 618.369 202.126 619.33 202.126 620.32C195.85 621.925 190.05 621.888 183.621 621.776C186.874 617.979 189.659 616.492 194.297 614.859C208.374 609.308 219.518 600.094 230.883 590.184C245.036 578.255 258.181 574.605 276.472 574.645C285.091 575.504 292.544 578.75 300.342 582.46C300.724 581.4 301.105 580.339 301.499 579.246C310.048 558.677 327.765 543.384 347.315 534.407C353.433 532.489 359.503 531.069 365.82 530.039C363.471 529.558 361.122 529.078 358.702 528.582C367.15 504.92 390.732 487.113 412.148 476.593C416.834 474.793 419.865 474.224 424.803 474.432C426.65 474.491 426.65 474.491 428.534 474.551C429.446 474.602 430.358 474.653 431.297 474.705C431.444 472.813 431.591 470.921 431.742 468.971C433.644 452.556 440.705 438.777 453.182 427.926C458.095 424.336 460.811 422.852 466.883 423.74Z" fill="#E8783D"/>
<path d="M579.334 519.846C579.334 520.326 579.334 520.807 579.334 521.302C578.548 521.329 577.761 521.356 576.951 521.385C547.775 522.646 529.897 533.013 506.561 549.947C493.775 559.217 480.709 566.907 466.616 573.906C465.169 574.631 463.721 575.356 462.229 576.104C460.868 576.764 459.506 577.424 458.104 578.103C456.881 578.699 455.659 579.294 454.399 579.907C451.226 581.004 451.226 581.004 446.955 579.548C447.95 578.687 448.944 577.825 449.969 576.937C451.264 575.787 452.56 574.636 453.894 573.45C455.183 572.319 456.471 571.187 457.798 570.021C461.184 566.449 462.616 563.865 464.036 559.162C462.157 560.641 460.278 562.12 458.399 563.599C456.735 564.908 455.069 566.214 453.401 567.517C449.213 570.795 445.058 574.098 440.984 577.523C431.036 585.792 420.884 591.906 409.279 597.471C404.402 599.738 404.402 599.738 400.677 602.244C396.179 604.859 391.714 606.105 386.727 607.488C384.941 607.989 383.156 608.49 381.316 609.007C379.96 609.376 378.604 609.746 377.207 610.127C390.449 607.662 401.967 604.2 414.216 598.478C415.374 597.981 416.532 597.483 417.725 596.971C423.147 594.629 427.831 592.139 432.632 588.649C439.069 584.299 445.171 584.667 452.649 585.373C431.845 608.923 379.596 614.954 350.515 622.388C343.81 624.107 337.131 625.904 330.457 627.743C321.582 630.18 312.683 632.433 303.723 634.518C301.717 634.999 301.717 634.999 299.67 635.49C298.376 635.793 297.082 636.095 295.75 636.406C294.611 636.674 293.472 636.942 292.299 637.218C288.754 637.829 285.426 637.893 281.838 637.794C285.84 633.701 290.575 632.988 295.894 631.514C306.281 628.521 316.111 624.852 325.964 620.32C335.312 616.043 335.312 616.043 339.403 615.44C343.851 614.287 345.533 612.535 348.739 609.217C356.424 601.885 367.736 592.653 378.631 592.653C378.748 591.632 378.866 590.611 378.987 589.559C380.324 584.313 382.613 581.001 385.748 576.636C386.717 575.254 387.686 573.873 388.684 572.449C400.232 558.684 417.249 550.431 434.144 546.057C438.952 545.703 438.952 545.703 443.897 545.721C445.695 545.724 447.493 545.727 449.346 545.73C451.199 545.747 453.053 545.765 454.962 545.784C456.826 545.785 458.691 545.785 460.611 545.786C474.456 545.852 474.456 545.852 479.359 546.891C483.714 547.742 485.442 546.351 489.124 543.963C494.948 540.232 494.948 540.232 499.622 540.232C499.622 538.31 499.622 536.388 499.622 534.407C500.561 534.407 501.501 534.407 502.469 534.407C502.939 532.966 503.408 531.524 503.892 530.039C506.241 531 508.59 531.961 511.009 532.951C505.146 539.233 498.773 544.638 492.149 550.061C490.095 551.752 488.041 553.443 485.988 555.135C485.087 555.874 484.186 556.613 483.257 557.374C481.183 559.046 481.183 559.046 479.694 560.618C488.563 555.195 496.887 549.305 505.118 542.93C527.783 525.406 550.153 511.001 579.334 519.846Z" fill="#C04035"/>
<path d="M741.604 364.038C741.604 370.285 741.604 376.532 741.604 382.968C739.866 383.586 738.129 384.203 736.339 384.84C706.975 395.458 681.716 410.553 659.045 432.477C657.242 434.031 655.433 435.578 653.619 437.119C631.659 456.775 614.68 481.386 598.116 505.724C596.182 508.535 594.189 511.294 592.144 514.022C587.206 513.355 582.645 512.724 577.91 511.11C579.984 504.793 583.314 500.05 587.34 494.91C588.632 493.228 589.922 491.544 591.21 489.859C591.851 489.024 592.491 488.188 593.151 487.328C598.711 479.991 603.926 472.379 609.214 464.837C620.179 449.278 631.896 434.732 644.811 420.828C645.617 419.954 646.424 419.08 647.254 418.179C668.265 395.533 691.57 376.604 720.964 366.951C721.885 366.648 722.805 366.345 723.753 366.033C729.828 364.196 735.292 363.772 741.604 364.038Z" fill="#E86F36"/>
<path d="M740.182 119.404C740.651 119.404 741.121 119.404 741.605 119.404C741.927 126.47 742.156 133.53 742.309 140.601C742.372 142.995 742.459 145.389 742.571 147.781C743.39 165.701 740.537 176.604 730.364 191.2C713.889 217.107 713.508 249.938 713.136 279.581C711.023 280.302 711.023 280.302 708.866 281.037C696.368 248.549 684.429 209.367 697.479 174.738C701.094 171.181 703.659 169.226 708.421 167.639C709.508 167.099 710.594 166.558 711.713 166.001C712.687 163.097 713.631 160.183 714.56 157.264C721.416 144.313 729.953 129.868 740.182 119.404Z" fill="#080403"/>
<path d="M347.316 554.794C350.163 557.706 350.163 557.706 350.163 562.075C346.984 564.984 344.019 567.402 340.199 569.355C339.729 570.797 339.26 572.239 338.776 573.724C337.836 573.724 336.897 573.724 335.929 573.724C336.252 574.745 336.575 575.766 336.907 576.818C337.496 582.359 335.684 584.911 333.082 589.742C332.644 591.924 332.644 591.924 332.198 594.15C330.235 598.478 330.235 598.478 325.364 600.72C323.32 601.284 321.265 601.809 319.204 602.301C316.992 602.892 314.781 603.484 312.57 604.076C311.465 604.357 310.361 604.639 309.222 604.929C304.711 606.105 300.265 607.487 295.806 608.854C287.745 611.201 279.655 613.088 271.447 614.809C266.664 615.847 261.925 616.994 257.177 618.183C247 620.724 236.958 622.708 226.536 623.973C221.974 624.601 221.974 624.601 217.356 626.094C211.095 627.887 204.914 628.815 198.479 629.695C197.169 629.879 195.859 630.063 194.509 630.252C191.76 630.638 189.011 631.02 186.261 631.4C182.448 631.935 178.64 632.496 174.832 633.068C159.208 635.383 143.55 637.203 127.842 638.796C125.065 639.083 125.065 639.083 122.232 639.376C111.816 640.397 101.563 640.969 91.0996 640.707C91.0996 640.226 91.0996 639.746 91.0996 639.251C92.3437 639.076 93.5877 638.901 94.8695 638.721C136.362 633.866 136.362 633.866 175.966 621.532C180.983 619.737 185.942 620.014 191.184 620.139C192.238 620.152 193.293 620.165 194.379 620.179C196.962 620.213 199.544 620.265 202.127 620.321C202.127 619.36 202.127 618.399 202.127 617.408C203.888 617.378 205.65 617.348 207.465 617.317C219.029 616.013 228.768 608.491 237.712 601.3C253.693 588.524 270.53 584.667 290.379 586.829C294.21 588.099 297.276 589.501 300.682 591.664C303.255 593.005 303.255 593.005 306.115 591.545C308.404 590.054 310.652 588.495 312.887 586.92C317.651 583.767 322.162 581.768 327.388 579.549C328.797 578.587 330.207 577.626 331.659 576.636C331.879 574.339 331.879 574.339 332.103 571.995C333.338 564.989 336.283 560.778 341.623 556.25C344.575 555.056 344.575 555.056 347.316 554.794Z" fill="#BC3F35"/>
<path d="M741.605 382.968C741.605 391.137 741.605 399.306 741.605 407.722C736.144 409.254 736.144 409.254 730.573 410.817C688.02 423.409 647.849 459.265 623.461 496.548C622.991 497.989 622.521 499.431 622.037 500.916C621.109 501.059 620.18 501.201 619.224 501.348C610.552 502.824 610.552 502.824 602.91 507.014C601.706 507.885 600.503 508.756 599.262 509.653C597.853 509.172 596.444 508.692 594.992 508.197C624.343 464.258 682.113 382.968 741.605 382.968Z" fill="#0C0504"/>
<path d="M483.965 522.758C480.087 524.8 476.173 526.545 472.133 528.219C465.077 531.392 457.625 535.877 454.073 543.144C451.701 543.206 449.328 543.203 446.956 543.144C446.486 542.664 446.016 542.183 445.532 541.688C430.71 540.382 418.992 541.585 405.677 548.969C404.66 549.511 403.643 550.054 402.596 550.613C385.362 560.692 370.84 577.65 363.669 596.68C361.391 601.744 359.962 603.236 355.323 605.941C351.263 608.445 347.914 610.708 344.736 614.314C341.622 617.408 341.622 617.408 335.929 617.408C335.181 604.148 336.994 591.443 345.27 580.822C349.724 576.081 352.52 574.595 358.881 573.996C362.539 573.726 362.539 573.726 365.821 572.267C368.62 568.131 370.418 563.932 372.359 559.315C378.956 544.413 392.844 535.693 407.189 529.584C415.37 526.726 423.742 525.962 432.322 525.336C438.853 524.798 442.846 523.696 448.379 519.846C459.886 515.73 473.192 517.572 483.965 522.758Z" fill="#F6BE88"/>
<path d="M466.884 423.74C470.265 427.016 470.265 427.016 472.578 431.02C472.257 434.878 471.569 436.437 468.824 439.132C467.861 439.879 466.898 440.626 465.905 441.395C452.888 452.671 448.15 468.921 442.686 484.898C440.597 484.98 440.597 484.98 438.465 485.063C418.083 486.108 401.613 491.182 387.172 506.74C384.955 510.058 383.242 513.325 381.478 516.933C382.221 515.873 382.965 514.812 383.73 513.719C387.58 509.17 391.768 506.016 396.691 502.827C397.569 502.252 398.446 501.676 399.35 501.084C406.082 496.833 411.992 494.613 419.911 493.635C415.735 496.943 411.422 499.82 406.922 502.645C401.388 506.21 396.238 509.969 391.175 514.203C373.832 528.587 373.832 528.587 360.127 527.126C362.78 512.479 379.587 497.581 391.016 488.88C412.456 473.913 412.456 473.913 424.804 474.432C426.651 474.491 426.651 474.491 428.535 474.551C429.447 474.602 430.359 474.653 431.298 474.705C431.518 471.867 431.518 471.867 431.743 468.971C433.646 452.556 440.706 438.777 453.183 427.926C458.096 424.336 460.812 422.852 466.884 423.74Z" fill="#F4BD88"/>
<path d="M493.928 508.197C494.398 508.197 494.867 508.197 495.351 508.197C496.056 519.009 496.056 519.009 496.775 530.039C498.184 530.52 499.593 531 501.045 531.495C500.845 535.551 500.845 535.551 499.621 540.232C495.996 543.048 495.996 543.048 491.437 545.238C489.947 545.987 488.457 546.736 486.922 547.507C482.004 549.148 480.36 548.59 475.423 547.513C468.755 547.116 462.085 547.109 455.406 547.058C452.716 546.994 452.716 546.994 449.971 546.93C426.606 546.769 406.908 555.869 390.018 572.267C385.857 577.525 382.331 582.751 380.232 589.195C378.213 593.555 376.549 594.276 372.225 596.021C370.529 596.733 370.529 596.733 368.8 597.46C365.82 598.478 365.82 598.478 362.973 598.478C364.803 590.369 367.653 584.737 372.492 578.092C373.131 577.2 373.77 576.309 374.429 575.39C386.662 558.6 402.793 545.906 422.757 540.232C426.617 539.961 430.292 539.824 434.144 539.868C435.12 539.857 436.096 539.846 437.102 539.834C443.29 539.858 448.323 540.829 454.072 543.144C454.426 542.29 454.78 541.436 455.145 540.556C460.656 530.5 471.369 525.932 481.717 522.929C485.387 522.758 485.387 522.758 492.504 527.127C493.209 517.756 493.209 517.756 493.928 508.197Z" fill="#EB7439"/>
<path d="M741.604 401.897C741.604 403.819 741.604 405.742 741.604 407.722C740.056 408.146 738.507 408.57 736.911 409.007C691.309 421.856 649.704 456.428 623.46 496.547C622.99 497.989 622.52 499.43 622.037 500.916C621.108 501.092 620.18 501.268 619.223 501.45C612.377 502.793 605.823 504.267 599.262 506.74C620.739 476.456 646.967 447.434 677.55 426.652C678.354 426.094 679.158 425.537 679.986 424.963C697.94 412.614 719.468 401.298 741.604 401.897Z" fill="#B74138"/>
<path d="M642.497 237.353C643.73 237.833 644.963 238.314 646.233 238.809C646.703 237.848 647.173 236.887 647.657 235.896C647.657 237.338 647.657 238.78 647.657 240.265C646.47 240.374 645.283 240.483 644.059 240.595C630.894 242.168 622.619 245.671 613.139 255.099C607.788 263.897 602.936 273.49 602.107 283.949C598.262 283.255 594.776 282.412 591.109 281.014C579.253 277.367 565.362 277.973 554.111 283.364C545.534 288.758 538.229 295.981 532.359 304.336C534.564 287.136 544.586 276.008 557.697 265.691C565.435 260.432 574.67 261.311 583.603 262.107C588.602 263.593 593.195 265.531 597.837 267.932C597.72 266.49 597.602 265.049 597.481 263.563C597.528 255.58 600.62 249.153 606.027 243.462C616.446 234.161 629.12 233.374 642.497 237.353Z" fill="#EA7238"/>
<path d="M360.126 534.407C353.215 542.398 344.791 548.556 334.504 550.425C324.361 556.165 317.78 564.398 313.153 575.179C313.83 574.121 313.83 574.121 314.521 573.041C320.467 564.302 327.609 558.204 335.928 551.881C337.337 552.602 337.337 552.602 338.774 553.337C338.138 553.938 337.501 554.538 336.845 555.157C329.3 562.53 322.451 570.299 320.27 581.004C318.803 581.086 318.803 581.086 317.306 581.169C316.024 581.265 314.741 581.36 313.42 581.459C312.148 581.543 310.877 581.628 309.566 581.715C305.552 582.562 304.424 583.77 301.765 586.828C298.265 586.445 295.283 585.074 291.979 583.825C275.908 579.223 258.217 582.304 243.805 590.48C233.926 597.186 225.599 605.74 217.839 614.865C214.314 617.953 212.733 618.046 208.175 617.772C207.038 617.719 205.9 617.667 204.728 617.612C203.869 617.545 203.01 617.477 202.126 617.408C202.126 618.369 202.126 619.33 202.126 620.32C195.85 621.925 190.05 621.888 183.621 621.776C186.874 617.979 189.659 616.492 194.297 614.859C208.374 609.308 219.518 600.094 230.883 590.184C245.036 578.254 258.181 574.605 276.472 574.645C285.091 575.503 292.544 578.75 300.342 582.46C300.724 581.399 301.105 580.339 301.499 579.246C310.427 557.764 335.344 530.91 360.126 534.407Z" fill="#F1BC89"/>
<path d="M560.829 404.81C560.212 406.792 560.212 406.792 559.583 408.814C554.474 427.78 554.82 446.447 555.135 465.968C553.689 465.338 552.243 464.707 550.754 464.057C538.638 458.974 528.603 455.838 515.279 457.232C518.927 436.429 530.535 421.919 546.595 409.179C552.042 405.947 554.454 404.81 560.829 404.81Z" fill="#E97136"/>
<path d="M532.36 419.371C531.421 420.332 530.482 421.293 529.514 422.284C528.479 425.122 527.449 427.962 526.455 430.816C524.992 434.58 522.989 437.931 520.951 441.395C518.378 446.408 516.862 451.822 515.279 457.231C516.219 456.751 517.158 456.27 518.126 455.775C520.556 455.673 522.99 455.652 525.421 455.684C526.717 455.697 528.012 455.71 529.347 455.724C530.341 455.741 531.336 455.758 532.36 455.775C532.36 456.256 532.36 456.736 532.36 457.231C530.935 457.34 529.509 457.449 528.04 457.561C514.15 458.738 514.15 458.738 502.891 466.554C502.282 467.322 501.673 468.089 501.045 468.88C499.9 470.262 498.755 471.643 497.575 473.067C496.842 474.088 496.108 475.109 495.351 476.161C493.942 475.2 492.533 474.239 491.081 473.249C486.856 472.58 486.856 472.58 482.274 472.339C480.727 472.23 479.18 472.121 477.586 472.009C476.403 471.937 475.219 471.866 474 471.793C483.62 450.179 495.009 430.68 517.681 421.737C522.795 419.875 526.931 419.111 532.36 419.371Z" fill="#B73D33"/>
<path d="M560.831 265.02C559.463 266.028 559.463 266.028 558.067 267.057C543.063 278.631 536.165 290.454 530.939 308.705C529.91 311.802 528.872 314.897 527.825 317.988C523.531 330.694 523.728 342.447 524.002 355.734C524.018 357.13 524.034 358.527 524.05 359.966C524.074 361.237 524.098 362.508 524.122 363.818C523.822 366.951 523.822 366.951 520.975 369.863C518.128 369.681 518.128 369.681 515.281 368.407C507.947 356.439 511.204 334.516 513.73 321.292C517.997 302.44 525.246 285.582 539.479 272.301C540.419 272.301 541.358 272.301 542.326 272.301C542.326 271.34 542.326 270.379 542.326 269.389C548.431 264.928 553.546 262.536 560.831 265.02Z" fill="#E0A06B"/>
<path d="M740.181 151.44C740.651 151.44 741.121 151.44 741.605 151.44C743.544 167.335 740.473 175.281 732.191 188.168C714.717 215.558 713.533 247.966 713.136 279.581C703.313 266.911 706.47 246.881 707.443 231.528C710.861 203.896 722.722 173.083 740.181 151.44Z" fill="#D86936"/>
<path d="M343.044 553.337C344.453 554.058 344.453 554.058 345.89 554.794C345.204 555.357 344.518 555.92 343.811 556.5C342.912 557.258 342.013 558.017 341.086 558.798C340.195 559.541 339.303 560.285 338.384 561.05C335.767 563.692 334.402 565.858 333.08 569.355C333.226 570.526 333.373 571.698 333.524 572.904C333.08 576.636 333.08 576.636 328.809 580.458C324.181 583.541 319.498 585.382 314.291 587.182C310.709 588.724 308.486 591.079 306.034 594.11C303.958 593.415 301.882 592.716 299.807 592.016C298.651 591.628 297.495 591.239 296.304 590.839C293.224 589.741 293.224 589.741 290.377 588.285C267.673 586.448 251.738 591.673 233.44 605.759C231.019 607.444 228.588 609.114 226.145 610.764C225.084 611.483 224.024 612.202 222.931 612.943C222.171 613.455 221.412 613.968 220.629 614.496C220.629 608.276 223.328 606.735 227.568 602.391C241.702 588.194 256.41 580.982 276.409 580.458C284.479 580.612 290.142 582.169 297.494 585.373C301.712 584.783 302.952 584.157 306.034 581.004C309.426 580.72 309.426 580.72 313.329 580.822C314.625 580.849 315.92 580.875 317.255 580.902C318.25 580.936 319.244 580.969 320.269 581.004C320.401 579.157 320.401 579.157 320.536 577.273C321.987 570.99 324.61 566.841 328.809 562.074C331.567 560.345 331.567 560.345 334.503 559.162C337.367 557.247 340.217 555.309 343.044 553.337Z" fill="#EE874C"/>
<path d="M656.198 346.565C654.492 347.68 654.492 347.68 652.751 348.817C636.768 359.64 622.774 372.356 612.072 388.793C611.065 390.287 610.057 391.782 609.019 393.321C596.483 412.261 589.467 432.395 583.603 454.32C583.134 454.32 582.664 454.32 582.18 454.32C581.248 425.001 595.487 394.388 613.851 372.594C642.119 341.764 642.119 341.764 656.198 346.565Z" fill="#EC763A"/>
<path d="M660.47 99.0181C660.47 104.128 659.387 105.609 656.733 109.848C634.593 146.707 630.333 185.387 639.119 227.159C639.595 229.586 640.071 232.013 640.542 234.44C635.505 230.492 634.268 224.932 632.535 218.969C632.224 217.91 631.912 216.851 631.592 215.76C629.475 208.35 627.908 201.412 627.731 193.668C627.66 191.845 627.588 190.023 627.514 188.145C626.595 154.999 636.008 125.733 658.379 101.219C659.069 100.493 659.759 99.7665 660.47 99.0181Z" fill="#18100B"/>
<path d="M397.136 512.565C396.802 517.42 395.39 518.707 391.876 522.156C390.26 523.524 388.632 524.877 386.994 526.217C385.29 527.64 383.587 529.064 381.884 530.489C380.66 531.505 380.66 531.505 379.411 532.541C376.828 534.73 374.399 537.061 371.959 539.413C367.197 543.659 361.811 545.7 355.912 547.86C353.061 548.716 353.061 548.716 351.586 550.425C349.273 550.67 346.96 550.912 344.647 551.153C332.22 553.355 322.988 562.116 315.734 572.359C314.457 574.476 314.457 574.476 313.154 576.636C312.684 575.675 312.214 574.714 311.73 573.724C318.096 562.845 325.591 552.575 337.352 547.513C338.488 547.32 339.624 547.126 340.794 546.927C345.403 545.836 348.23 543.721 352.031 540.869C353.288 539.936 354.545 539.004 355.84 538.042C356.785 537.323 357.73 536.605 358.704 535.864C356.825 534.903 354.946 533.942 353.01 532.952C357.237 531.99 361.465 531.029 365.821 530.039C362.298 529.318 362.298 529.318 358.704 528.583C359.173 527.622 359.643 526.661 360.127 525.671C361.977 525.851 363.826 526.031 365.732 526.217C375.33 526.263 381.564 520.549 388.612 514.46C391.442 512.565 391.442 512.565 397.136 512.565Z" fill="#E67F45"/>
<path d="M579.336 519.846C579.336 520.326 579.336 520.807 579.336 521.302C578.55 521.329 577.763 521.356 576.953 521.384C549.066 522.59 531.524 531.693 509.188 548.076C493.961 559.162 493.961 559.162 489.66 559.162C490.198 555.495 490.705 553.711 493.349 551.1C494.315 550.402 495.281 549.705 496.277 548.986C497.885 547.81 497.885 547.81 499.525 546.61C500.673 545.797 501.822 544.983 503.005 544.145C504.169 543.306 505.333 542.466 506.532 541.601C529.436 525.172 550.543 511.119 579.336 519.846Z" fill="#C95D34"/>
<path d="M464.037 559.162C463.625 564.235 462.86 566.18 459.361 569.918C458.056 571.024 456.752 572.129 455.408 573.269C453.019 575.307 450.664 577.389 448.379 579.548C448.379 580.509 448.379 581.47 448.379 582.461C450.258 582.941 452.137 583.422 454.073 583.917C454.073 585.358 454.073 586.8 454.073 588.285C453.134 587.805 452.194 587.324 451.226 586.829C445.625 585.872 440.514 585.676 435.424 588.473C433.351 589.994 431.287 591.527 429.23 593.069C418.065 600.759 404.816 604.823 391.976 608.58C390.88 608.906 389.784 609.232 388.654 609.567C383.313 611.053 379.646 611.814 374.361 610.127C376.762 609.213 379.164 608.304 381.567 607.397C382.905 606.89 384.243 606.384 385.621 605.861C390.019 604.303 390.019 604.303 394.723 603.057C401.187 601.009 406.908 598.148 412.883 594.929C414.067 594.291 415.251 593.653 416.472 592.996C426.803 587.259 435.823 580.453 444.774 572.7C448.189 569.744 451.663 566.864 455.141 563.986C456.249 563.049 457.357 562.112 458.499 561.147C461.19 559.162 461.19 559.162 464.037 559.162Z" fill="#1B0B0A"/>
<path d="M300.343 598.478C301.048 600.641 301.048 600.641 301.767 602.847C303.176 603.808 304.585 604.769 306.037 605.759C290.005 611.353 274.442 613.182 257.641 614.496C259.519 613.535 261.398 612.574 263.334 611.584C263.334 610.623 263.334 609.662 263.334 608.671C262.134 609.109 260.934 609.546 259.698 609.997C257.358 610.827 257.358 610.827 254.972 611.675C253.419 612.232 251.867 612.79 250.268 613.364C246.253 614.496 246.253 614.496 243.406 613.04C262.145 602.507 278.985 597.283 300.343 598.478Z" fill="#A9382F"/>
<path d="M538.055 249.002C537.246 249.586 536.437 250.169 535.603 250.771C516.013 265.525 507.582 284.425 503.893 308.704C503.237 315.009 502.767 321.301 502.469 327.634C499.622 326.178 499.622 326.178 498.766 323.789C495.501 304.008 499.231 283.794 510.12 267.022C516.2 258.994 527.221 245.308 538.055 249.002Z" fill="#EA793D"/>
<path d="M649.084 120.861C650.494 120.861 651.903 120.861 653.355 120.861C653.708 128.511 652.664 134.09 650.063 141.247C646.212 152.249 643.93 163.233 641.967 174.738C641.498 173.777 641.028 172.816 640.544 171.826C639.604 171.826 638.665 171.826 637.697 171.826C637.697 170.385 637.697 168.943 637.697 167.458C635.982 174.581 635.797 181.732 635.473 189.027C635.411 190.314 635.35 191.6 635.287 192.926C635.136 196.086 634.993 199.245 634.85 202.405C634.38 202.405 633.911 202.405 633.427 202.405C632.916 173.28 635.045 146.926 649.084 120.861Z" fill="#E2B17F"/>
<path d="M656.199 93.1938C657.138 93.6744 658.078 94.1549 659.046 94.65C658.582 95.3727 658.117 96.0953 657.639 96.8399C654.21 102.293 651.327 107.517 648.993 113.569C647.258 117.37 645.045 120.773 642.854 124.319C634.966 137.877 631.026 153.328 629.154 168.914C628.684 168.914 628.214 168.914 627.73 168.914C626.623 144.408 631.21 121.224 647.644 102.296C650.437 99.2008 653.294 96.1778 656.199 93.1938Z" fill="#DD6B35"/>
<path d="M343.046 553.337C343.986 553.818 344.925 554.298 345.893 554.794C344.864 555.638 344.864 555.638 343.814 556.5C342.915 557.258 342.016 558.017 341.089 558.798C340.197 559.541 339.306 560.285 338.387 561.05C335.77 563.692 334.405 565.858 333.082 569.355C333.229 570.526 333.376 571.698 333.527 572.904C333.082 576.636 333.082 576.636 328.812 580.458C324.184 583.541 319.501 585.382 314.294 587.182C310.712 588.724 308.489 591.079 306.037 594.11C301.81 592.668 297.582 591.226 293.227 589.741C293.227 589.261 293.227 588.78 293.227 588.285C294.548 588.435 295.869 588.585 297.23 588.74C299.476 588.515 299.476 588.515 301.767 588.285C302.354 587.084 302.941 585.882 303.546 584.645C304.368 583.443 305.19 582.242 306.037 581.004C310.828 580.327 315.464 580.589 320.272 581.004C320.404 579.157 320.404 579.157 320.539 577.273C321.99 570.99 324.613 566.841 328.812 562.074C331.57 560.345 331.57 560.345 334.506 559.162C337.37 557.247 340.22 555.309 343.046 553.337Z" fill="#ED7539"/>
<path d="M527.646 464.421C529.061 464.434 530.476 464.447 531.933 464.46C533.554 464.486 533.554 464.486 535.208 464.512C530.938 467.424 530.938 467.424 526.668 468.88C528.077 469.841 529.486 470.802 530.938 471.792C530.112 472.095 529.287 472.397 528.436 472.708C516.502 477.523 510.467 484.546 505.316 496.547C505.111 495.646 504.905 494.745 504.694 493.817C503.99 490.675 503.99 490.675 502.469 487.81C501.06 488.291 499.651 488.771 498.199 489.266C501.698 479.126 506.965 472.302 515.28 465.968C519.763 464.439 522.95 464.364 527.646 464.421Z" fill="#EBBA8A"/>
<path d="M430.675 484.716C432.262 484.713 433.85 484.709 435.485 484.705C439.115 484.866 442.082 485.267 445.532 486.355C445.532 487.316 445.532 488.277 445.532 489.267C443.875 489.298 443.875 489.298 442.185 489.329C421.93 490.244 401.744 497.297 387.172 512.292C386.232 513.343 385.293 514.395 384.325 515.478C382.211 516.919 382.211 516.919 380.055 518.39C383.62 505.422 394.85 497.202 405.676 490.723C414.159 485.884 421.01 484.694 430.675 484.716Z" fill="#ED7538"/>
<path d="M170.811 627.601C170.342 628.562 169.872 629.523 169.388 630.513C170.327 631.474 171.267 632.435 172.235 633.425C108.895 641.474 108.895 641.474 91.0996 640.706C91.0996 640.226 91.0996 639.745 91.0996 639.25C93.044 638.965 93.044 638.965 95.0276 638.674C101.045 637.785 107.06 636.884 113.074 635.974C114.15 635.811 115.226 635.649 116.334 635.481C130.364 633.347 144.114 630.926 157.795 627.021C162.612 626.078 166.065 626.466 170.811 627.601Z" fill="#8E352C"/>
<path d="M532.36 419.372C529.015 422.794 525.883 424.153 521.596 426.198C501.444 436.407 488.184 452.178 476.847 471.793C475.907 471.313 474.968 470.832 474 470.337C484.863 447.627 497.408 429.122 521.524 420.339C525.294 419.359 528.488 419.186 532.36 419.372Z" fill="#1A0908"/>
<path d="M436.638 489.176C439.137 489.196 439.137 489.196 441.686 489.216C442.956 489.233 444.226 489.25 445.534 489.267C445.534 489.747 445.534 490.228 445.534 490.723C439.193 491.444 439.193 491.444 432.723 492.179C432.723 493.621 432.723 495.062 432.723 496.548C431.228 497.304 429.732 498.061 428.191 498.84C417.711 504.16 407.272 509.487 397.137 515.478C397.137 514.517 397.137 513.556 397.137 512.565C395.728 512.085 394.319 511.604 392.867 511.109C394.137 510.214 395.407 509.318 396.715 508.396C398.398 507.207 400.081 506.018 401.764 504.83C402.598 504.241 403.433 503.653 404.294 503.046C408.616 499.991 412.872 496.872 417.065 493.635C423.711 489.103 428.703 489.095 436.638 489.176Z" fill="#EC8046"/>
<path d="M676.127 285.406C673.933 286.464 673.933 286.464 671.695 287.544C653.047 296.701 638.184 306.749 624.883 323.266C623.825 324.521 622.766 325.777 621.675 327.071C618.77 330.416 618.77 330.416 619.19 334.915C617.311 334.915 615.432 334.915 613.496 334.915C620.015 314.871 639.792 297.601 657.528 288.221C663.961 285.248 669.141 283.266 676.127 285.406Z" fill="#BE5C37"/>
<path d="M452.649 585.373C442.183 597.221 420.462 601.857 406.032 606.76C404.742 607.208 403.452 607.655 402.123 608.117C388.916 612.624 388.916 612.624 382.902 613.04C381.962 612.079 381.023 611.117 380.055 610.127C381.09 609.896 382.124 609.666 383.191 609.428C394.095 606.839 404.005 603.129 414.217 598.478C415.378 597.981 416.54 597.483 417.737 596.971C423.151 594.624 427.835 592.136 432.632 588.649C439.069 584.299 445.171 584.667 452.649 585.373Z" fill="#A63B30"/>
<path d="M489.658 556.25C490.128 557.692 490.597 559.133 491.081 560.618C486.844 562.931 482.602 565.234 478.359 567.535C477.177 568.181 475.994 568.827 474.776 569.492C468.908 572.669 463.009 575.767 457.002 578.661C455.992 579.15 454.982 579.638 453.941 580.141C451.225 581.005 451.225 581.005 446.955 579.548C447.966 578.704 448.977 577.859 450.019 576.989C451.327 575.851 452.635 574.714 453.983 573.542C455.94 571.869 455.94 571.869 457.937 570.163C461.661 565.904 462.239 563.324 462.613 557.706C463.552 557.706 464.492 557.706 465.46 557.706C465.46 559.148 465.46 560.589 465.46 562.075C475.4 562.788 481.199 556.25 489.658 556.25Z" fill="#BA3E36"/>
<path d="M570.794 286.862C567.975 289.058 565.162 291.189 562.192 293.17C546.789 304.047 538.429 321.145 533.785 339.283C533.315 339.283 532.846 339.283 532.362 339.283C531.139 326.525 535.161 314.901 542.403 304.506C558.888 284.958 558.888 284.958 570.794 286.862Z" fill="#140707"/>
<path d="M594.991 401.898C596.4 401.898 597.809 401.898 599.261 401.898C598.867 409.03 597.702 414.304 594.635 420.737C589.552 431.471 586.69 442.859 583.604 454.319C583.134 454.319 582.664 454.319 582.18 454.319C581.912 446.545 582.79 439.75 584.582 432.204C584.831 431.132 585.08 430.061 585.337 428.957C587.643 419.487 590.929 410.738 594.991 401.898Z" fill="#EC7B3E"/>
<path d="M708.866 222.791C709.336 222.791 709.806 222.791 710.29 222.791C710.29 228.557 710.29 234.323 710.29 240.264C711.229 239.784 712.168 239.303 713.136 238.808C713.136 252.263 713.136 265.718 713.136 279.58C708.095 272.705 707.262 269.284 707.254 260.986C707.251 258.504 707.251 258.504 707.248 255.972C707.254 254.242 707.259 252.513 707.265 250.73C707.259 249.018 707.254 247.305 707.248 245.54C707.251 243.05 707.251 243.05 707.254 240.509C707.255 238.996 707.257 237.484 707.258 235.925C707.446 231.441 708.056 227.198 708.866 222.791Z" fill="#AD552D"/>
<path d="M325.964 620.32C326.904 620.801 327.843 621.281 328.811 621.776C329.701 624.78 329.701 624.78 330.234 627.601C324.488 629.063 318.74 630.515 312.989 631.956C311.035 632.447 309.081 632.942 307.128 633.439C304.314 634.156 301.497 634.861 298.68 635.564C296.988 635.991 295.296 636.418 293.552 636.858C289.482 637.687 285.967 637.989 281.838 637.794C285.839 633.701 290.575 632.986 295.894 631.514C305.253 628.841 313.96 625.669 322.8 621.515C323.844 621.121 324.888 620.726 325.964 620.32Z" fill="#AD3C31"/>
<path d="M560.563 280.309C563.676 281.037 563.676 281.037 566.523 283.949C568.872 284.979 571.243 285.958 573.64 286.862C572.231 289.024 572.231 289.024 570.794 291.23C569.854 290.269 568.915 289.308 567.947 288.318C561.201 288.318 557.049 292.465 552.1 296.651C549.442 298.511 549.442 298.511 545.172 298.511C545.172 293.787 545.518 290.991 548.664 287.436C555.568 281.217 555.568 281.217 560.563 280.309Z" fill="#B53A33"/>
<path d="M347.316 554.794C350.163 557.706 350.163 557.706 350.163 562.075C346.984 564.984 344.018 567.402 340.199 569.355C339.729 570.797 339.259 572.239 338.775 573.724C337.836 573.724 336.896 573.724 335.928 573.724C336.398 575.166 336.868 576.607 337.352 578.092C335.473 577.612 333.594 577.131 331.658 576.636C331.985 568.45 334.008 564.41 339.248 558.264C341.977 555.949 343.79 555.13 347.316 554.794Z" fill="#C54234"/>
<path d="M579.333 519.846C579.333 520.326 579.333 520.807 579.333 521.302C578.472 521.375 577.612 521.448 576.725 521.523C572.789 521.863 568.855 522.22 564.921 522.576C563.567 522.691 562.213 522.805 560.818 522.923C553.788 523.572 547.517 524.415 540.901 527.127C540.901 526.166 540.901 525.205 540.901 524.214C539.022 523.734 537.143 523.253 535.207 522.758C551.066 517.062 563.146 514.939 579.333 519.846Z" fill="#B35531"/>
<path d="M260.486 589.741C259.246 590.324 258.006 590.908 256.728 591.51C245.806 596.842 236.389 602.663 226.93 610.388C223.477 613.039 223.477 613.039 219.207 614.495C222.925 605.558 231.01 596.333 239.824 592.619C242.917 591.971 245.966 591.571 249.099 591.197C250.449 590.626 251.8 590.056 253.191 589.468C256.216 588.285 256.216 588.285 260.486 589.741Z" fill="#EE8D56"/>
<path d="M623.461 468.88C624.87 469.361 626.279 469.841 627.731 470.337C625.698 475.009 623.201 478.331 619.813 482.077C615.249 487.233 610.809 492.466 606.469 497.821C604.864 499.798 604.864 499.798 603.227 501.814C600.459 505.213 600.459 505.213 599.262 509.653C597.853 509.172 596.444 508.692 594.992 508.196C604.114 494.775 613.209 481.435 623.461 468.88Z" fill="#170908"/>
<path d="M419.911 591.198C420.85 591.678 421.79 592.159 422.758 592.654C418.121 601.507 408.095 603.581 399.338 606.339C397.034 607.033 394.729 607.719 392.421 608.399C390.736 608.904 390.736 608.904 389.018 609.419C387.945 609.722 386.871 610.026 385.765 610.338C384.322 610.752 384.322 610.752 382.85 611.173C379.643 611.644 377.427 611.12 374.361 610.128C376.762 609.213 379.164 608.304 381.567 607.397C383.574 606.637 383.574 606.637 385.621 605.862C390.019 604.303 390.019 604.303 394.879 602.989C401.411 600.944 407.07 597.85 413.063 594.551C415.307 593.353 417.606 592.265 419.911 591.198Z" fill="#220C0A"/>
<path d="M330.234 546.057C330.234 547.018 330.234 547.979 330.234 548.969C332.583 548.489 334.931 548.008 337.351 547.513C336.118 548.442 336.118 548.442 334.86 549.39C327.29 555.279 320.197 561.45 314.577 569.356C314.107 568.394 313.637 567.433 313.153 566.443C311.744 566.443 310.335 566.443 308.883 566.443C325.978 546.057 325.978 546.057 330.234 546.057Z" fill="#E1B588"/>
<path d="M170.811 627.602C170.341 628.563 169.871 629.524 169.387 630.514C170.327 631.475 171.266 632.436 172.234 633.426C159.551 634.868 159.551 634.868 146.612 636.339C147.552 635.858 148.491 635.378 149.459 634.883C149.459 633.921 149.459 632.96 149.459 631.97C147.58 631.49 145.701 631.009 143.766 630.514C146.666 629.735 149.574 628.981 152.484 628.239C154.102 627.817 155.721 627.394 157.388 626.959C162.363 626.13 165.931 626.456 170.811 627.602Z" fill="#912E29"/>
<path d="M297.496 598.478C297.496 598.959 297.496 599.439 297.496 599.934C296.289 600.182 295.082 600.43 293.838 600.685C281.579 603.276 269.635 606.455 257.641 610.127C256.184 610.57 254.727 611.013 253.226 611.47C249.95 612.47 246.677 613.478 243.406 614.496C255.309 600.345 280.532 597.661 297.496 598.478Z" fill="#451713"/>
<path d="M209.243 607.215C209.243 608.656 209.243 610.098 209.243 611.583C209.712 613.025 210.182 614.466 210.666 615.952C207.848 616.432 205.029 616.913 202.126 617.408C202.126 618.369 202.126 619.33 202.126 620.32C195.85 621.925 190.05 621.888 183.621 621.776C186.969 617.836 190.066 616.273 194.831 614.496C199.989 612.49 204.628 610.362 209.243 607.215Z" fill="#E2B482"/>
<path d="M639.118 180.563C639.588 180.563 640.057 180.563 640.541 180.563C640.577 181.524 640.613 182.485 640.649 183.476C640.816 187.875 640.99 192.273 641.164 196.672C641.22 198.184 641.276 199.696 641.334 201.253C641.647 209.017 642.124 216.584 643.388 224.248C641.979 224.248 640.57 224.248 639.118 224.248C638.648 225.209 638.178 226.17 637.694 227.16C634.426 213.457 634.426 213.457 634.848 206.774C636.257 207.254 637.666 207.735 639.118 208.23C639.118 199.1 639.118 189.97 639.118 180.563Z" fill="#ECB27F"/>
<path d="M266.336 582.318C267.409 582.323 268.483 582.328 269.589 582.333C270.695 582.345 271.802 582.357 272.942 582.37C274.07 582.376 275.198 582.383 276.361 582.389C279.136 582.407 281.91 582.433 284.685 582.461C284.685 582.941 284.685 583.422 284.685 583.917C283.547 583.937 282.41 583.958 281.237 583.979C270.628 584.451 262.368 586.373 252.741 590.97C249.56 592.44 246.868 593.676 243.405 594.11C242.466 593.149 241.527 592.188 240.559 591.197C242.809 590.007 245.063 588.826 247.32 587.648C248.575 586.989 249.83 586.33 251.123 585.652C256.283 583.212 260.666 582.274 266.336 582.318Z" fill="#EE7737"/>
<path d="M511.012 540.232C511.481 542.155 511.951 544.077 512.435 546.057C509.178 548.249 505.915 550.432 502.649 552.61C501.722 553.235 500.796 553.86 499.841 554.504C492.83 559.162 492.83 559.162 489.66 559.162C490.016 554.353 491.251 553.185 494.859 549.902C496.406 548.726 497.966 547.566 499.535 546.421C500.712 545.523 500.712 545.523 501.912 544.607C507.758 540.232 507.758 540.232 511.012 540.232Z" fill="#C25736"/>
<path d="M489.658 556.25C490.128 557.692 490.598 559.133 491.082 560.618C488.571 562.123 486.048 563.605 483.52 565.078C481.414 566.32 481.414 566.32 479.266 567.586C475.424 569.355 475.424 569.355 471.154 567.899C469.745 566.938 468.335 565.977 466.884 564.987C465.944 564.506 465.005 564.026 464.037 563.531C463.147 560.527 463.147 560.527 462.613 557.706C463.553 557.706 464.492 557.706 465.46 557.706C465.46 559.148 465.46 560.589 465.46 562.075C475.401 562.788 481.2 556.25 489.658 556.25Z" fill="#B33B32"/>
<path d="M505.317 537.32C506.256 537.801 507.195 538.281 508.163 538.776C506.016 544.934 501.629 547.7 496.509 551.154C495.674 551.727 494.84 552.3 493.979 552.891C491.601 554.512 489.207 556.11 486.812 557.706C485.744 558.431 484.676 559.156 483.576 559.902C477.651 563.687 477.651 563.687 473.74 562.928C472.887 562.647 472.033 562.365 471.154 562.075C472.784 561.317 474.413 560.558 476.092 559.777C483.042 556.222 488.722 551.523 494.641 546.421C495.676 545.545 496.711 544.668 497.777 543.765C500.298 541.627 502.811 539.478 505.317 537.32Z" fill="#2A100D"/>
<path d="M600.684 323.266C601.154 323.266 601.624 323.266 602.108 323.266C602.284 324.407 602.46 325.548 602.641 326.724C603.234 330.751 603.234 330.751 606.378 333.459C605.291 335.8 604.192 338.135 603.086 340.466C602.475 341.767 601.864 343.068 601.235 344.408C599.428 347.713 597.744 349.902 594.99 352.389C593.155 348.633 593.863 347.433 594.985 343.458C595.473 341.699 595.473 341.699 595.972 339.903C596.323 338.678 596.675 337.452 597.037 336.189C597.382 334.952 597.728 333.715 598.085 332.441C598.942 329.379 599.809 326.321 600.684 323.266Z" fill="#DB6737"/>
<path d="M340.199 550.425C339.139 551.219 339.139 551.219 338.058 552.029C323.878 562.641 323.878 562.641 313.154 576.635C312.684 575.674 312.214 574.713 311.73 573.723C327.623 546.565 327.623 546.565 340.199 550.425Z" fill="#281F18"/>
<path d="M358.705 601.391C360.45 606.746 359.905 608.358 358.705 614.496C353.538 614.977 348.37 615.457 343.047 615.952C351.791 604.927 351.791 604.927 358.705 601.391Z" fill="#EF7F41"/>
<path d="M503.894 530.04C507.417 531.481 507.417 531.481 511.012 532.952C505.361 539.094 499.185 544.036 492.507 548.97C491.568 548.008 490.628 547.047 489.66 546.057C492.24 543.145 492.24 543.145 495.354 540.233C496.763 540.233 498.172 540.233 499.624 540.233C499.624 538.31 499.624 536.388 499.624 534.408C500.564 534.408 501.503 534.408 502.471 534.408C502.941 532.966 503.41 531.525 503.894 530.04Z" fill="#B63E31"/>
<path d="M263.333 608.671C263.333 610.128 263.333 611.584 263.333 613.04C269.674 612.319 269.674 612.319 276.143 611.584C269.151 616.352 261.073 617.791 252.746 616.862C251.542 616.562 250.339 616.262 249.098 615.952C247.689 615.952 246.28 615.952 244.828 615.952C249.744 609.806 255.834 608.671 263.333 608.671Z" fill="#9E372E"/>
<path d="M469.73 444.126C470.669 444.607 471.609 445.087 472.577 445.582C471.973 446.309 471.369 447.035 470.747 447.783C463.296 457.114 457.968 466.917 452.649 477.617C450.672 471.551 452.413 468.501 454.751 462.743C458.594 455.555 464.111 449.899 469.73 444.126Z" fill="#27130E"/>
<path d="M438.415 585.373C443.112 585.373 447.809 585.373 452.649 585.373C445.64 592.543 436.887 595.987 427.027 597.022C427.497 596.061 427.967 595.1 428.451 594.109C429.86 593.689 431.269 593.269 432.721 592.835C434.13 592.295 435.539 591.754 436.991 591.197C437.461 589.275 437.931 587.353 438.415 585.373Z" fill="#B94B38"/>
<path d="M439.839 582.46C437.719 588.469 434.418 590.174 428.985 593.017C427.557 593.776 426.13 594.534 424.659 595.315C423.562 595.878 422.464 596.441 421.334 597.022C421.334 592.653 421.334 592.653 424.626 588.922C429.973 583.961 432.666 582.064 439.839 582.46Z" fill="#0F0605"/>
<path d="M530.938 470.337C526.667 473.249 526.667 473.249 521.952 475.615C515.611 479.263 512.179 484.678 508.163 490.723C506.748 492.671 505.327 494.614 503.893 496.547C504.706 488.022 507.176 480.945 513.617 475.353C519.455 471.311 523.707 469.412 530.938 470.337Z" fill="#EA7B3B"/>
<path d="M397.136 496.548C398.545 497.028 399.954 497.509 401.406 498.004C399.632 503.448 397.751 504.272 393.132 507.378C388.235 510.686 384.086 514.017 380.055 518.39C382.571 509.236 389.546 501.724 397.136 496.548Z" fill="#EA7032"/>
<path d="M523.821 522.759C524.76 523.239 525.7 523.72 526.668 524.215C520.748 532.821 514.309 538.275 505.316 543.145C507.31 536.227 510.679 533.233 516.17 528.856C517.598 527.706 519.025 526.555 520.496 525.37C522.142 524.077 522.142 524.077 523.821 522.759Z" fill="#150807"/>
<path d="M706.021 244.633C706.49 244.633 706.96 244.633 707.444 244.633C707.514 246.302 707.583 247.971 707.655 249.69C707.762 251.918 707.87 254.146 707.978 256.374C708.022 257.469 708.066 258.564 708.111 259.693C708.47 266.752 709.567 272.858 711.714 279.581C710.775 280.061 709.835 280.542 708.867 281.037C707.638 277.948 706.426 274.853 705.22 271.754C704.543 270.031 703.866 268.308 703.168 266.532C701.75 262.107 701.75 262.107 703.174 259.195C703.643 259.195 704.113 259.195 704.597 259.195C705.067 254.39 705.537 249.584 706.021 244.633Z" fill="#170B09"/>
<path d="M676.127 285.406C672.462 287.437 668.786 289.433 665.095 291.412C664.057 291.992 663.018 292.572 661.948 293.17C660.939 293.705 659.93 294.24 658.89 294.791C657.966 295.294 657.041 295.797 656.089 296.316C653.352 297.055 653.352 297.055 650.159 295.74C649.334 295.213 648.508 294.686 647.658 294.142C666.756 282.536 666.756 282.536 676.127 285.406Z" fill="#AA5833"/>
<path d="M294.65 604.303C290.047 609.012 283.949 609.567 277.747 611.129C276.449 611.475 275.152 611.821 273.815 612.178C272.562 612.498 271.309 612.818 270.018 613.148C268.873 613.442 267.728 613.736 266.549 614.039C263.128 614.525 260.898 614.129 257.641 613.04C284.096 603.606 284.096 603.606 294.65 604.303Z" fill="#2C100E"/>
<path d="M445.531 489.267C445.531 489.747 445.531 490.228 445.531 490.723C439.19 491.444 439.19 491.444 432.72 492.179C432.72 493.621 432.72 495.062 432.72 496.547C428.752 497.675 426.41 498.31 422.489 496.821C419.909 495.091 419.909 495.091 417.062 492.179C426.483 488.593 435.573 488.991 445.531 489.267Z" fill="#F08B4C"/>
<path d="M421.334 484.898C424.299 484.859 427.265 484.83 430.23 484.807C431.882 484.79 433.533 484.773 435.235 484.756C438.998 484.872 441.971 485.209 445.532 486.354C445.532 487.315 445.532 488.276 445.532 489.267C438.486 489.747 431.44 490.228 424.181 490.723C424.181 489.762 424.181 488.801 424.181 487.81C423.241 486.849 422.302 485.888 421.334 484.898Z" fill="#E0632F"/>
<path d="M478.091 432.568C479.559 433.019 481.027 433.469 482.54 433.933C482.54 434.894 482.54 435.855 482.54 436.846C478.486 440.647 475.237 443.292 469.729 444.126C469.729 442.685 469.729 441.243 469.729 439.758C466.91 441.199 466.91 441.199 464.035 442.67C470.838 432.448 470.838 432.448 478.091 432.568Z" fill="#E8703B"/>
<path d="M257.641 576.636C258.58 579.039 259.519 581.442 260.487 583.917C252.965 586.482 252.965 586.482 249.1 586.829C245.541 584.099 245.541 584.099 243.406 581.005C252.836 576.636 252.836 576.636 257.641 576.636Z" fill="#EAB581"/>
<path d="M458.343 464.513C459.282 464.513 460.222 464.513 461.19 464.513C458.817 471.793 456.445 479.074 454.073 486.355C452.194 485.874 450.315 485.394 448.379 484.899C448.849 482.016 449.318 479.132 449.802 476.162C450.742 476.162 451.681 476.162 452.649 476.162C454.528 472.318 456.407 468.473 458.343 464.513Z" fill="#D66837"/>
<path d="M313.154 564.987C314.221 567.262 314.221 567.262 314.577 570.811C313.121 574.521 311.342 577.893 308.884 581.004C307.474 581.485 306.065 581.966 304.613 582.461C304.938 580.09 305.301 577.724 305.681 575.362C305.879 574.044 306.077 572.726 306.281 571.369C307.46 567.899 307.46 567.899 310.418 565.977C311.321 565.65 312.224 565.323 313.154 564.987Z" fill="#F5C391"/>
<path d="M708.868 249.001C710.277 249.722 710.277 249.722 711.715 250.458C712.185 260.068 712.655 269.679 713.139 279.581C708.334 273.028 708.334 273.028 708.451 267.772C708.465 266.674 708.479 265.576 708.493 264.445C708.529 263.313 708.565 262.181 708.601 261.015C708.621 259.86 708.64 258.706 708.66 257.517C708.71 254.678 708.786 251.839 708.868 249.001Z" fill="#D96D3C"/>
<path d="M293.226 602.847C297.453 603.327 301.681 603.808 306.036 604.303C306.036 604.783 306.036 605.264 306.036 605.759C302.928 606.747 299.813 607.714 296.695 608.671C294.961 609.212 293.227 609.752 291.441 610.309C286.138 611.577 281.567 611.812 276.145 611.584C279.968 608.976 282.781 607.709 287.087 606.305C288.238 605.926 289.388 605.547 290.573 605.156C291.449 604.874 292.324 604.593 293.226 604.303C293.226 603.822 293.226 603.342 293.226 602.847Z" fill="#842E27"/>
<path d="M630.577 133.966C633.735 145.751 631.302 157.139 629.153 168.913C628.684 168.913 628.214 168.913 627.73 168.913C627.205 144.315 627.205 144.315 630.577 133.966Z" fill="#DC7C45"/>
<path d="M603.533 135.422C604.003 135.422 604.473 135.422 604.957 135.422C604.957 138.306 604.957 141.189 604.957 144.159C605.896 144.159 606.835 144.159 607.803 144.159C605.69 153.53 605.69 153.53 603.533 163.089C603.063 163.089 602.594 163.089 602.11 163.089C602.071 160.116 602.044 157.143 602.021 154.17C602.004 152.515 601.988 150.859 601.971 149.153C602.102 144.432 602.659 140.054 603.533 135.422Z" fill="#3E3123"/>
<path d="M306.036 629.057C306.506 630.499 306.976 631.94 307.46 633.426C304.526 634.164 301.59 634.889 298.652 635.61C296.2 636.218 296.2 636.218 293.698 636.838C289.57 637.67 286.021 637.987 281.838 637.794C285.555 633.991 288.915 633.322 293.937 631.787C295.596 631.273 297.254 630.759 298.963 630.229C303.189 629.057 303.189 629.057 306.036 629.057Z" fill="#8C322A"/>
<path d="M362.973 560.618C362.504 562.54 362.034 564.462 361.55 566.443C355.913 567.404 350.276 568.365 344.469 569.355C344.469 568.394 344.469 567.433 344.469 566.443C346.748 565.463 349.033 564.494 351.319 563.53C352.591 562.99 353.862 562.449 355.172 561.892C358.703 560.618 358.703 560.618 362.973 560.618Z" fill="#C4473A"/>
<path d="M455.496 451.407C457.685 455.885 456.017 459.192 454.873 463.966C454.464 465.697 454.055 467.427 453.633 469.21C453.309 470.543 452.984 471.876 452.649 473.249C451.24 472.768 449.831 472.288 448.379 471.793C449.042 463.482 451.137 458.455 455.496 451.407Z" fill="#E6753B"/>
<path d="M538.055 249.003C536.047 250.683 534.029 252.349 532.005 254.008C530.321 255.402 530.321 255.402 528.602 256.824C525.413 259.076 523.367 260.193 519.55 260.652C518.611 260.171 517.671 259.691 516.703 259.196C518.478 257.794 520.258 256.4 522.041 255.009C523.032 254.232 524.023 253.455 525.044 252.654C532.663 247.164 532.663 247.164 538.055 249.003Z" fill="#EC8244"/>
<path d="M660.47 99.0181C660.47 104.292 659.057 106.307 656.378 110.758C655.618 112.037 654.859 113.315 654.076 114.632C651.93 117.948 651.93 117.948 649.083 120.86C647.674 119.899 646.264 118.938 644.812 117.948C646.886 115.338 648.963 112.729 651.04 110.121C652.774 107.942 652.774 107.942 654.543 105.719C657.623 101.93 657.623 101.93 660.47 99.0181Z" fill="#282019"/>
<path d="M656.199 346.564C651.502 349.928 646.805 353.292 641.965 356.757C640.086 355.796 638.207 354.835 636.271 353.845C642.04 348.889 648.689 344.003 656.199 346.564Z" fill="#ED8144"/>
<path d="M633.423 202.405C633.893 202.405 634.363 202.405 634.847 202.405C635.139 204.108 635.43 205.81 635.731 207.564C636.118 209.819 636.506 212.073 636.893 214.328C637.085 215.447 637.277 216.567 637.474 217.72C638.435 223.308 639.419 228.884 640.541 234.441C635.726 229.902 633.316 224.954 632 218.423C632.063 213.009 632.626 207.754 633.423 202.405Z" fill="#473727"/>
<path d="M667.587 55.334C667.587 59.7024 667.587 59.7024 666.163 64.0709C663.839 66.1963 661.424 68.2196 658.957 70.1685C657.649 71.2103 656.341 72.2521 654.993 73.3254C653.982 74.1157 652.971 74.9059 651.929 75.7201C650.989 75.2396 650.05 74.759 649.082 74.264C655.189 68.0171 661.295 61.7702 667.587 55.334Z" fill="#D6AA7D"/>
<path d="M536.632 315.985C537.571 315.985 538.511 315.985 539.479 315.985C538.444 324.033 536.156 331.565 533.785 339.283C533.315 339.283 532.846 339.283 532.362 339.283C531.888 330.241 533.144 324.31 536.632 315.985Z" fill="#2D0F0F"/>
<path d="M304.614 572.268C306.002 576.102 306.065 577.981 305.059 582.006C303.191 585.373 303.191 585.373 300.433 586.738C297.497 586.829 297.497 586.829 293.227 583.917C293.227 582.956 293.227 581.995 293.227 581.004C296.75 581.725 296.75 581.725 300.344 582.461C300.784 581.319 301.224 580.178 301.678 579.002C303.191 575.18 303.191 575.18 304.614 572.268Z" fill="#E1B183"/>
<path d="M585.029 431.021C586.438 431.502 587.847 431.982 589.299 432.477C588.657 435.301 588.002 438.122 587.342 440.941C586.979 442.512 586.615 444.083 586.241 445.702C585.029 449.951 585.029 449.951 582.182 454.319C581.841 446.117 583.057 438.964 585.029 431.021Z" fill="#EC8C51"/>
<path d="M570.794 286.862C565.652 290.859 560.397 294.681 555.136 298.511C554.196 297.069 553.257 295.628 552.289 294.142C564.049 285.784 564.049 285.784 570.794 286.862Z" fill="#2C100D"/>
<path d="M656.2 93.1938C657.139 93.6744 658.079 94.1549 659.047 94.65C658.566 95.4065 658.085 96.1629 657.59 96.9423C654.209 102.351 651.136 107.47 649.083 113.58C648.907 112.649 648.73 111.718 648.549 110.759C648.255 109.768 647.962 108.776 647.659 107.755C646.72 107.275 645.78 106.794 644.812 106.299C648.57 101.974 652.328 97.6497 656.2 93.1938Z" fill="#E6783F"/>
<path d="M335.929 551.881C336.868 552.361 337.808 552.842 338.776 553.337C334.505 557.705 330.235 562.074 325.965 566.442C323.592 566.442 321.22 566.442 318.848 566.442C321.157 564.285 323.471 562.132 325.787 559.981C327.075 558.781 328.363 557.582 329.69 556.346C333.082 553.337 333.082 553.337 335.929 551.881Z" fill="#DEAF78"/>
<path d="M456.919 570.812C460.442 572.253 460.442 572.253 464.036 573.724C459.847 576.581 455.838 578.94 451.225 581.005C449.816 580.524 448.407 580.044 446.955 579.548C450.243 576.665 453.531 573.782 456.919 570.812Z" fill="#AA3A35"/>
<path d="M552.289 452.863C555.549 457.865 555.39 460.123 555.136 465.969C551.848 464.527 548.56 463.085 545.172 461.6C546.581 461.12 547.99 460.639 549.442 460.144C548.972 458.702 548.503 457.261 548.019 455.776C549.428 455.776 550.837 455.776 552.289 455.776C552.289 454.815 552.289 453.853 552.289 452.863Z" fill="#D96C32"/>
<path d="M715.983 406.266C718.332 406.266 720.68 406.266 723.1 406.266C723.1 408.188 723.1 410.11 723.1 412.091C719.245 414.063 715.97 413.642 711.713 413.547C712.183 412.586 712.652 411.625 713.136 410.635C714.076 410.635 715.015 410.635 715.983 410.635C715.983 409.193 715.983 407.751 715.983 406.266Z" fill="#B94139"/>
<path d="M520.974 228.616C521.914 229.096 522.853 229.577 523.821 230.072C518.197 237.423 514.401 241.186 505.316 243.177C509.803 236.751 514.646 232.973 520.974 228.616Z" fill="#D5A87D"/>
<path d="M462.613 557.706C463.553 557.706 464.492 557.706 465.46 557.706C465.46 559.148 465.46 560.589 465.46 562.075C469.688 562.075 473.915 562.075 478.271 562.075C478.271 563.997 478.271 565.919 478.271 567.899C476.392 568.38 474.513 568.86 472.577 569.355C472.108 568.394 471.638 567.433 471.154 566.443C469.392 565.812 469.392 565.812 467.595 565.169C464.037 563.531 464.037 563.531 462.88 560.436C462.792 559.535 462.704 558.634 462.613 557.706Z" fill="#A4362F"/>
<path d="M607.803 489.267C608.742 490.709 609.682 492.15 610.65 493.636C609.947 494.426 609.244 495.216 608.52 496.03C607.608 497.072 606.696 498.114 605.757 499.187C604.849 500.218 603.94 501.248 603.005 502.31C600.414 505.283 600.414 505.283 599.262 509.653C597.853 509.173 596.444 508.692 594.992 508.197C599.22 501.95 603.447 495.703 607.803 489.267Z" fill="#391912"/>
<path d="M335.928 562.074C337.338 562.555 338.747 563.035 340.199 563.53C339.427 569.058 337.065 571.499 333.082 575.18C332.103 572.722 332.103 572.722 331.658 569.355C333.704 565.351 333.704 565.351 335.928 562.074Z" fill="#D85633"/>
<path d="M343.048 553.337C343.987 553.818 344.926 554.298 345.894 554.794C339.639 560.624 339.639 560.624 337.354 562.074C335.945 561.594 334.535 561.113 333.084 560.618C339.845 554.976 339.845 554.976 343.048 553.337ZM328.813 562.074C329.753 563.035 330.692 563.996 331.66 564.987C330.251 566.428 328.842 567.87 327.39 569.355C326.45 568.875 325.511 568.394 324.543 567.899C325.952 565.977 327.361 564.055 328.813 562.074Z" fill="#E27340"/>
<path d="M348.739 550.425C346.944 554.097 345.482 554.46 341.889 556.159C337.621 558.251 333.891 560.413 330.234 563.531C333.233 555.247 339.877 549.092 348.739 550.425Z" fill="#BC572E"/>
<path d="M502.469 479.074C504.348 479.555 506.227 480.035 508.163 480.53C507.693 482.933 507.224 485.336 506.74 487.811C503.921 488.292 501.103 488.772 498.199 489.267C500.868 482.351 500.868 482.351 502.469 479.074Z" fill="#E2B284"/>
<path d="M594.991 350.933C595.93 351.413 596.869 351.894 597.837 352.389C592.67 358.155 587.503 363.921 582.18 369.863C582.18 363.837 584.621 362.277 588.585 357.94C589.774 356.628 590.963 355.316 592.188 353.964C593.575 352.464 593.575 352.464 594.991 350.933Z" fill="#F3AE7E"/>
<path d="M227.746 602.847C229.625 603.808 231.504 604.769 233.44 605.759C229.212 608.642 224.985 611.525 220.629 614.496C220.629 610.127 220.629 610.127 224.187 606.214C225.362 605.103 226.536 603.992 227.746 602.847Z" fill="#ED8A4C"/>
<path d="M241.982 582.46C243.861 582.941 245.739 583.422 247.675 583.917C247.675 585.358 247.675 586.8 247.675 588.285C243.405 591.197 243.405 591.197 239.135 591.197C239.855 588.039 240.558 585.373 241.982 582.46Z" fill="#F7C390"/>
<path d="M646.236 442.67C646.236 448.056 645.035 449.015 641.61 452.954C640.322 454.466 640.322 454.466 639.007 456.008C636.314 458.646 633.986 460.111 630.578 461.6C631.112 460.965 631.646 460.331 632.196 459.677C636.925 454.048 641.605 448.383 646.236 442.67Z" fill="#210F09"/>
<path d="M397.136 605.76C391.247 609.274 383.678 612.324 376.852 610.93C376.03 610.665 375.208 610.401 374.361 610.128C376.814 609.104 379.277 608.109 381.745 607.125C383.116 606.567 384.487 606.01 385.899 605.435C390.317 604.222 392.794 604.468 397.136 605.76Z" fill="#4A1A16"/>
<path d="M496.777 548.969C497.717 550.891 498.656 552.813 499.624 554.793C492.863 559.162 492.863 559.162 489.66 559.162C490.227 554.96 490.785 553.597 494.019 550.789C494.929 550.188 495.84 549.588 496.777 548.969Z" fill="#BA4B35"/>
<path d="M350.396 534.123C352.13 534.173 352.13 534.173 353.899 534.225C355.644 534.264 355.644 534.264 357.424 534.305C358.762 534.355 358.762 534.355 360.126 534.407C358.291 536.41 356.387 538.35 354.433 540.232C353.493 540.232 352.554 540.232 351.586 540.232C351.586 539.271 351.586 538.309 351.586 537.319C349.237 537.319 346.889 537.319 344.469 537.319C347.316 534.407 347.316 534.407 350.396 534.123Z" fill="#E8B278"/>
<path d="M390.019 502.372C391.175 504.829 391.175 504.829 391.442 508.197C387.94 512.376 384.532 515.337 380.055 518.39C382.17 511.702 385.535 507.562 390.019 502.372Z" fill="#EB8042"/>
<path d="M603.532 336.371C605.411 337.332 607.289 338.293 609.225 339.283C605.934 342.924 605.934 342.924 602.108 346.564C600.699 346.564 599.29 346.564 597.838 346.564C599.717 343.2 601.596 339.837 603.532 336.371Z" fill="#301C13"/>
<path d="M632.002 132.51C633.411 132.99 634.82 133.471 636.272 133.966C635.332 138.291 634.393 142.615 633.425 147.071C632.486 146.591 631.546 146.11 630.578 145.615C631.048 141.29 631.518 136.966 632.002 132.51Z" fill="#DA672D"/>
<path d="M706.018 244.633C706.488 244.633 706.958 244.633 707.442 244.633C707.558 247.423 707.64 250.215 707.709 253.006C707.758 254.56 707.808 256.115 707.859 257.716C707.4 262.544 706.344 264.423 703.171 267.932C702.702 265.049 702.232 262.165 701.748 259.195C702.688 259.195 703.627 259.195 704.595 259.195C705.065 254.39 705.534 249.584 706.018 244.633Z" fill="#221108"/>
<path d="M320.271 560.618C321.21 561.579 322.15 562.54 323.118 563.53C319.562 568.208 315.901 572.522 311.73 576.636C313.795 570.652 316.728 565.813 320.271 560.618Z" fill="#4E3829"/>
<path d="M629.154 235.896C634.891 236.702 640.57 237.58 646.235 238.809C646.705 237.848 647.175 236.887 647.659 235.896C647.659 237.338 647.659 238.78 647.659 240.265C642.962 240.265 638.264 240.265 633.425 240.265C633.425 239.304 633.425 238.343 633.425 237.353C632.015 236.872 630.606 236.392 629.154 235.896Z" fill="#E67F4B"/>
<path d="M314.578 624.689C315.517 625.17 316.457 625.651 317.425 626.146C315.734 629.058 315.734 629.058 313.154 631.97C309.329 632.334 309.329 632.334 306.037 631.97C306.037 631.009 306.037 630.048 306.037 629.058C308.834 627.503 311.686 626.05 314.578 624.689Z" fill="#A1372D"/>
<path d="M613.497 481.986C614.906 482.467 616.315 482.947 617.767 483.442C615.954 486.411 614.051 489.323 612.073 492.179C611.134 492.179 610.194 492.179 609.227 492.179C610.294 485.263 610.294 485.263 613.497 481.986Z" fill="#26100C"/>
<path d="M455.495 461.601C457.274 463.876 457.274 463.876 458.342 467.425C456.822 471.168 454.832 474.201 452.648 477.618C451.03 472.654 451.413 471.789 453.271 467.152C453.68 466.11 454.089 465.069 454.51 463.995C454.835 463.205 455.16 462.415 455.495 461.601Z" fill="#4B2215"/>
<path d="M721.678 404.81C723.557 404.81 725.436 404.81 727.371 404.81C727.371 405.771 727.371 406.732 727.371 407.722C729.72 407.722 732.069 407.722 734.489 407.722C730.336 410.555 727.905 411.294 723.101 412.091C722.631 409.688 722.162 407.286 721.678 404.81Z" fill="#9C3831"/>
<path d="M489.66 381.512C492.511 385.887 493.208 388.37 494.108 393.434C494.466 395.402 494.466 395.402 494.831 397.41C495.004 398.41 495.176 399.411 495.354 400.442C490.9 396.325 490.272 393.475 489.66 387.336C489.66 385.414 489.66 383.492 489.66 381.512Z" fill="#554431"/>
<path d="M488.234 377.144C488.703 377.144 489.173 377.144 489.657 377.144C490.127 381.949 490.596 386.754 491.08 391.705C488.234 389.066 488.234 389.066 485.387 385.88C485.387 384.439 485.387 382.997 485.387 381.512C486.326 381.512 487.266 381.512 488.234 381.512C488.234 380.07 488.234 378.629 488.234 377.144Z" fill="#1B130E"/>
<path d="M647.66 106.299C649.084 110.668 649.084 110.668 647.66 115.036C645.781 115.036 643.902 115.036 641.966 115.036C641.497 114.075 641.027 113.114 640.543 112.124C643.39 107.755 643.39 107.755 647.66 106.299Z" fill="#EA7033"/>
<path d="M612.072 132.51C613.481 134.432 614.89 136.354 616.342 138.334C614.463 140.256 612.584 142.179 610.648 144.159C608.929 138.883 609.875 137.4 612.072 132.51Z" fill="#DCAD7D"/>
<path d="M335.928 605.759C336.309 606.63 336.691 607.501 337.084 608.399C338.753 611.543 340.474 613.561 343.045 615.952C340.696 616.433 338.348 616.913 335.928 617.408C335.928 613.564 335.928 609.72 335.928 605.759Z" fill="#D2996E"/>
<path d="M227.749 597.022C228.688 597.022 229.628 597.022 230.596 597.022C230.24 599.752 230.24 599.752 229.172 602.847C226.236 604.667 226.236 604.667 223.479 605.759C224.295 601.584 224.705 600.136 227.749 597.022Z" fill="#F7C799"/>
<path d="M362.972 560.618C362.502 562.54 362.033 564.462 361.549 566.443C359.67 566.443 357.791 566.443 355.855 566.443C355.385 565.001 354.916 563.56 354.432 562.074C358.702 560.618 358.702 560.618 362.972 560.618Z" fill="#BD4333"/>
<path d="M479.695 372.775C483.965 378.235 483.965 378.235 483.965 381.512C481.616 381.031 479.267 380.551 476.848 380.056C477.787 377.653 478.727 375.25 479.695 372.775Z" fill="#D4AA7C"/>
<path d="M651.928 133.966C652.867 133.966 653.807 133.966 654.775 133.966C654.775 139.732 654.775 145.499 654.775 151.44C654.305 151.44 653.835 151.44 653.351 151.44C652.576 145.491 651.928 139.976 651.928 133.966Z" fill="#D05135"/>
<path d="M424.181 595.565C424.181 596.526 424.181 597.488 424.181 598.478C425.12 598.958 426.06 599.439 427.028 599.934C423.024 600.844 423.024 600.844 418.487 601.39C417.078 600.429 415.669 599.468 414.217 598.478C420.978 595.565 420.978 595.565 424.181 595.565Z" fill="#91332C"/>
<path d="M375.783 503.829C375.783 509.554 373.798 511.349 370.089 515.478C369.15 515.478 368.21 515.478 367.242 515.478C369.296 510.577 371.986 507.454 375.783 503.829Z" fill="#E2B684"/>
<path d="M425.603 487.811C423.735 489.995 423.735 489.995 421.333 492.179C419.924 492.179 418.514 492.179 417.062 492.179C417.062 490.737 417.062 489.296 417.062 487.811C420.608 485.997 421.918 486.68 425.603 487.811Z" fill="#ED6C30"/>
<path d="M479.694 458.688C480.633 460.129 481.573 461.571 482.541 463.056C479.722 467.381 479.722 467.381 476.847 471.793C475.907 471.312 474.968 470.832 474 470.337C475.879 466.492 477.758 462.648 479.694 458.688Z" fill="#491815"/>
<path d="M472.578 432.477C475.866 432.957 479.154 433.438 482.542 433.933C482.542 434.894 482.542 435.855 482.542 436.845C480.193 437.806 477.845 438.767 475.425 439.757C475.425 438.796 475.425 437.835 475.425 436.845C474.486 436.364 473.546 435.884 472.578 435.389C472.578 434.428 472.578 433.467 472.578 432.477Z" fill="#E0794B"/>
<path d="M562.253 291.23C563.193 291.711 564.132 292.192 565.1 292.687C563.677 297.055 563.677 297.055 561.008 298.875C557.983 299.967 557.983 299.967 553.713 298.511C556.531 296.109 559.35 293.706 562.253 291.23Z" fill="#AB3B2F"/>
<path d="M740.181 119.404C740.651 120.846 741.121 122.287 741.605 123.773C739.256 126.175 736.907 128.578 734.487 131.054C733.548 130.573 732.609 130.092 731.641 129.597C734.459 126.234 737.277 122.87 740.181 119.404Z" fill="#26120C"/>
<path d="M277.568 649.444C283.262 650.9 283.262 650.9 283.262 650.9L277.568 649.444Z" fill="black"/>
<path d="M204.973 637.794C209.243 639.25 209.243 639.25 209.243 639.25L204.973 637.794Z" fill="black"/>
<path d="M249.1 633.426C251.946 634.882 251.946 634.882 251.946 634.882L249.1 633.426Z" fill="black"/>
<path d="M360.127 631.97C362.974 633.426 362.974 633.426 362.974 633.426L360.127 631.97Z" fill="black"/>
<path d="M380.055 626.145C382.902 627.601 382.902 627.601 382.902 627.601L380.055 626.145Z" fill="black"/>
<path d="M286.107 621.777C288.954 623.233 288.954 623.233 288.954 623.233L286.107 621.777Z" fill="black"/>
<path d="M441.262 608.671C444.109 610.128 444.109 610.128 444.109 610.128L441.262 608.671Z" fill="black"/>
<path d="M239.135 569.355C241.982 570.811 241.982 570.811 241.982 570.811L239.135 569.355Z" fill="black"/>
<path d="M408.523 464.513C411.37 465.969 411.37 465.969 411.37 465.969L408.523 464.513Z" fill="black"/>
</svg>
